# Blender 4.2.1 LTS
# www.blender.org
mtllib sgc_door_single_windowed.mtl
o Door_Single_Windowed
v -0.591820 0.005080 0.044450
v 0.591820 0.005080 0.044450
v -0.591820 0.005080 -0.044450
v 0.591820 0.005080 -0.044450
v -0.591820 2.573020 0.044450
v 0.591820 2.573020 0.044450
v -0.591820 2.573020 -0.044450
v 0.591820 2.573020 -0.044450
v -0.165100 1.638300 -0.044450
v -0.165100 2.374900 -0.044450
v 0.165100 1.638300 -0.044450
v 0.165100 2.374900 -0.044450
v 0.165100 1.638300 0.044450
v -0.165100 1.638300 0.044450
v -0.165100 2.374900 0.044450
v 0.165100 2.374900 0.044450
v -0.177800 2.387599 0.063500
v 0.177800 2.387599 0.063500
v -0.177800 1.625600 0.063500
v 0.177800 1.625600 0.063500
v -0.152400 2.362200 0.063500
v 0.152400 2.362200 0.063500
v -0.152400 1.651000 0.063500
v 0.152400 1.651000 0.063500
v -0.177800 2.387599 0.038100
v 0.177800 2.387599 0.038100
v -0.177800 1.625600 0.038100
v 0.177800 1.625600 0.038100
v -0.152400 2.362200 0.000000
v 0.152400 2.362200 0.000000
v -0.152400 1.651000 0.000000
v 0.152400 1.651000 0.000000
v 0.177800 2.387599 -0.063500
v -0.177800 2.387599 -0.063500
v 0.177800 1.625600 -0.063500
v -0.177800 1.625600 -0.063500
v 0.152400 2.362200 -0.063500
v -0.152400 2.362200 -0.063500
v 0.152400 1.651000 -0.063500
v -0.152400 1.651000 -0.063500
v 0.177800 2.387599 -0.038100
v -0.177800 2.387599 -0.038100
v 0.177800 1.625600 -0.038100
v -0.177800 1.625600 -0.038100
v 0.152400 2.362200 -0.000000
v -0.152400 2.362200 0.000000
v 0.152400 1.651000 -0.000000
v -0.152400 1.651000 0.000000
vn -0.0000 -1.0000 -0.0000
vn -0.0000 1.0000 -0.0000
vn -0.0000 -0.0000 -1.0000
vn -0.0000 -0.0000 1.0000
vn 1.0000 -0.0000 -0.0000
vn -1.0000 -0.0000 -0.0000
vt 0.969785 0.715341
vt 0.954765 0.915328
vt 0.954765 0.715341
vt 0.203891 0.959280
vt 0.003906 0.974301
vt 0.003906 0.959280
vt 0.437781 0.667602
vt 0.279852 0.739700
vt 0.003906 0.667602
vt 0.437781 0.867587
vt 0.404307 0.739700
vt 0.718648 0.161835
vt 0.646551 0.003906
vt 0.718648 0.037380
vt 0.774438 0.037380
vt 0.430367 0.003906
vt 0.415346 0.437782
vt 0.415346 0.003906
vt 0.859804 0.437780
vt 0.874824 0.003906
vt 0.874824 0.437780
vt 0.279852 0.795489
vt 0.404307 0.795489
vt 0.003906 0.867587
vt 0.846536 0.003906
vt 0.774438 0.161835
vt 0.846536 0.437781
vt 0.965887 0.698598
vt 0.970179 0.569851
vt 0.970179 0.698598
vt 0.952594 0.928595
vt 0.948302 0.984385
vt 0.948302 0.932886
vt 0.974444 0.988675
vt 0.978736 0.932886
vt 0.978736 0.984383
vt 0.974470 0.694306
vt 0.974470 0.574142
vt 0.768967 0.984843
vt 0.893420 0.989135
vt 0.773259 0.989135
vt 0.956885 0.928595
vt 0.952594 0.988677
vt 0.981787 0.257499
vt 0.992516 0.137337
vt 0.992516 0.257499
vt 0.993782 0.778151
vt 0.983053 0.829650
vt 0.983053 0.778151
vt 0.768967 0.980552
vt 0.897712 0.984843
vt 0.970153 0.988675
vt 0.974444 0.928595
vt 0.992351 0.003906
vt 0.981622 0.124070
vt 0.981622 0.003906
vt 0.983053 0.894415
vt 0.993782 0.842917
vt 0.993782 0.894415
vt 0.983053 0.842917
vt 0.969785 0.915328
vt 0.203891 0.974301
vt 0.646551 0.437781
vt 0.430367 0.437782
vt 0.859804 0.003906
vt 0.965887 0.569851
vt 0.956885 0.988677
vt 0.981787 0.137337
vt 0.993782 0.829650
vt 0.897712 0.980552
vt 0.970153 0.928595
vt 0.992351 0.124070
s 1
usemtl door_main
f 3/1/1 2/2/1 1/3/1
f 6/4/2 7/5/2 5/6/2
f 7/7/3 9/8/3 3/9/3
f 8/10/3 10/11/3 7/7/3
f 13/12/4 6/13/4 16/14/4
f 6/13/4 15/15/4 16/14/4
f 4/16/5 6/17/5 2/18/5
f 1/19/6 7/20/6 3/21/6
f 8/10/3 11/22/3 12/23/3
f 3/9/3 11/22/3 4/24/3
f 5/25/4 14/26/4 15/15/4
f 1/27/4 13/12/4 14/26/4
f 28/28/5 18/29/5 20/30/5
f 18/31/4 21/32/4 22/33/4
f 19/34/4 24/35/4 23/36/4
f 24/37/4 18/29/4 22/38/4
f 17/39/4 23/40/4 21/41/4
f 26/42/2 17/43/2 18/31/2
f 30/44/6 24/45/6 22/46/6
f 29/47/1 22/48/1 21/49/1
f 25/50/6 19/51/6 17/39/6
f 27/52/1 20/53/1 19/34/1
f 31/54/5 21/55/5 23/56/5
f 32/57/2 23/58/2 24/59/2
f 44/28/6 34/29/6 36/30/6
f 34/31/3 37/32/3 38/33/3
f 35/34/3 40/35/3 39/36/3
f 40/37/3 34/29/3 38/38/3
f 33/39/3 39/40/3 37/41/3
f 42/42/2 33/43/2 34/31/2
f 46/44/5 40/45/5 38/46/5
f 45/47/1 38/48/1 37/49/1
f 41/50/5 35/51/5 33/39/5
f 43/52/1 36/53/1 35/34/1
f 47/54/6 37/55/6 39/56/6
f 40/59/2 47/60/2 39/58/2
f 3/1/1 4/61/1 2/2/1
f 6/4/2 8/62/2 7/5/2
f 7/7/3 10/11/3 9/8/3
f 8/10/3 12/23/3 10/11/3
f 13/12/4 2/63/4 6/13/4
f 6/13/4 5/25/4 15/15/4
f 4/16/5 8/64/5 6/17/5
f 1/19/6 5/65/6 7/20/6
f 8/10/3 4/24/3 11/22/3
f 3/9/3 9/8/3 11/22/3
f 5/25/4 1/27/4 14/26/4
f 1/27/4 2/63/4 13/12/4
f 28/28/5 26/66/5 18/29/5
f 18/31/4 17/43/4 21/32/4
f 19/34/4 20/53/4 24/35/4
f 24/37/4 20/30/4 18/29/4
f 17/39/4 19/51/4 23/40/4
f 26/42/2 25/67/2 17/43/2
f 30/44/6 32/68/6 24/45/6
f 29/47/1 30/69/1 22/48/1
f 25/50/6 27/70/6 19/51/6
f 27/52/1 28/71/1 20/53/1
f 31/54/5 29/72/5 21/55/5
f 32/57/2 31/60/2 23/58/2
f 44/28/6 42/66/6 34/29/6
f 34/31/3 33/43/3 37/32/3
f 35/34/3 36/53/3 40/35/3
f 40/37/3 36/30/3 34/29/3
f 33/39/3 35/51/3 39/40/3
f 42/42/2 41/67/2 33/43/2
f 46/44/5 48/68/5 40/45/5
f 45/47/1 46/69/1 38/48/1
f 41/50/5 43/70/5 35/51/5
f 43/52/1 44/71/1 36/53/1
f 47/54/6 45/72/6 37/55/6
f 40/59/2 48/57/2 47/60/2
