# Blender 4.2.1 LTS
# www.blender.org
mtllib sgc_door_single.mtl
o Door_Single
v -0.591820 0.005080 0.044450
v 0.591820 0.005080 0.044450
v -0.591820 0.005080 -0.044450
v 0.591820 0.005080 -0.044450
v -0.591820 2.573020 0.044450
v 0.591820 2.573020 0.044450
v -0.591820 2.573020 -0.044450
v 0.591820 2.573020 -0.044450
v -0.165100 1.638300 -0.044450
v -0.165100 2.374900 -0.044450
v 0.165100 1.638300 -0.044450
v 0.165100 2.374900 -0.044450
v 0.165100 1.638300 0.044450
v -0.165100 1.638300 0.044450
v -0.165100 2.374900 0.044450
v 0.165100 2.374900 0.044450
vn -0.0000 -1.0000 -0.0000
vn -0.0000 1.0000 -0.0000
vn -0.0000 -0.0000 -1.0000
vn -0.0000 -0.0000 1.0000
vn 1.0000 -0.0000 -0.0000
vn -1.0000 -0.0000 -0.0000
vt 0.969785 0.715341
vt 0.954765 0.915328
vt 0.954765 0.715341
vt 0.203891 0.959280
vt 0.003906 0.974301
vt 0.003906 0.959280
vt 0.437781 0.667602
vt 0.279852 0.739700
vt 0.003906 0.667602
vt 0.437781 0.867587
vt 0.404307 0.739700
vt 0.718648 0.161835
vt 0.646551 0.003906
vt 0.718648 0.037380
vt 0.774438 0.037380
vt 0.430367 0.003906
vt 0.415346 0.437782
vt 0.415346 0.003906
vt 0.859804 0.437780
vt 0.874824 0.003906
vt 0.874824 0.437780
vt 0.279852 0.795489
vt 0.404307 0.795489
vt 0.003906 0.867587
vt 0.846536 0.003906
vt 0.774438 0.161835
vt 0.846536 0.437781
vt 0.969785 0.915328
vt 0.203891 0.974301
vt 0.646551 0.437781
vt 0.430367 0.437782
vt 0.859804 0.003906
s 1
usemtl door_main
f 3/1/1 2/2/1 1/3/1
f 6/4/2 7/5/2 5/6/2
f 7/7/3 9/8/3 3/9/3
f 8/10/3 10/11/3 7/7/3
f 13/12/4 6/13/4 16/14/4
f 6/13/4 15/15/4 16/14/4
f 4/16/5 6/17/5 2/18/5
f 1/19/6 7/20/6 3/21/6
f 8/10/3 11/22/3 12/23/3
f 3/9/3 11/22/3 4/24/3
f 5/25/4 14/26/4 15/15/4
f 1/27/4 13/12/4 14/26/4
f 14/26/4 16/14/4 15/15/4
f 12/23/3 9/8/3 10/11/3
f 3/1/1 4/28/1 2/2/1
f 6/4/2 8/29/2 7/5/2
f 7/7/3 10/11/3 9/8/3
f 8/10/3 12/23/3 10/11/3
f 13/12/4 2/30/4 6/13/4
f 6/13/4 5/25/4 15/15/4
f 4/16/5 8/31/5 6/17/5
f 1/19/6 5/32/6 7/20/6
f 8/10/3 4/24/3 11/22/3
f 3/9/3 9/8/3 11/22/3
f 5/25/4 1/27/4 14/26/4
f 1/27/4 2/30/4 13/12/4
f 14/26/4 13/12/4 16/14/4
f 12/23/3 11/22/3 9/8/3
