# Blender 4.2.1 LTS
# www.blender.org
o Briefingroom_Table_Physics
v -20.726400 9.753600 9.144000
v -20.221392 11.582400 7.924800
v -20.726400 9.753600 -9.144000
v -20.221392 11.582400 -7.924800
v -26.212801 9.753600 -3.657600
v -26.212801 9.753600 3.657600
v -24.993601 11.582400 3.152591
v -24.993601 11.582400 -3.152591
v -20.726400 10.972800 9.144000
v -20.726400 10.972800 -9.144000
v -26.212801 10.972800 3.657600
v -26.212801 10.972800 -3.657600
v -18.211800 2.438400 3.657600
v -18.211800 2.438400 -3.657600
v -20.726400 2.438400 -1.828800
v -20.726400 2.438400 1.828800
v -18.211800 1.828800 -3.657600
v -18.211800 1.828800 3.657600
v -19.659599 -0.000000 7.315200
v -19.659599 -0.000000 -7.315200
v -24.384001 -0.000000 2.590800
v -24.384001 -0.000000 -2.590800
v -24.384001 1.219200 -2.590800
v -19.659599 1.219200 -7.315200
v -19.659599 1.219200 7.315200
v -24.384001 1.219200 2.590800
v -20.726400 1.828800 -1.828800
v -20.726400 1.828800 1.828800
v -18.211800 10.363200 3.657600
v -18.211800 10.363200 -3.657600
v -20.726400 10.363200 1.828800
v -20.726400 10.363200 -1.828800
v 20.726400 9.753600 9.144000
v 20.221392 11.582400 7.924800
v 20.726400 9.753600 -9.144000
v 20.221392 11.582400 -7.924800
v 26.212801 9.753600 -3.657600
v 26.212801 9.753600 3.657600
v 24.993601 11.582400 3.152591
v 24.993601 11.582400 -3.152591
v 20.726400 10.972800 9.144000
v 20.726400 10.972800 -9.144000
v 26.212801 10.972800 3.657600
v 26.212801 10.972800 -3.657600
v 18.211800 2.438400 3.657600
v 18.211800 2.438400 -3.657600
v 20.726400 2.438400 -1.828800
v 20.726400 2.438400 1.828800
v 18.211800 1.828800 -3.657600
v 18.211800 1.828800 3.657600
v 19.659599 -0.000000 7.315200
v 19.659599 -0.000000 -7.315200
v 24.384001 -0.000000 2.590800
v 24.384001 -0.000000 -2.590800
v 24.384001 1.219200 -2.590800
v 19.659599 1.219200 -7.315200
v 19.659599 1.219200 7.315200
v 24.384001 1.219200 2.590800
v 20.726400 1.828800 -1.828800
v 20.726400 1.828800 1.828800
v 18.211800 10.363200 3.657600
v 18.211800 10.363200 -3.657600
v 20.726400 10.363200 1.828800
v 20.726400 10.363200 -1.828800
vn -0.2971 -0.6303 0.7173
vn -0.1012 0.9644 0.2444
vn -0.2971 -0.6302 -0.7173
vn -0.1012 0.9644 -0.2444
vn -0.7173 -0.6303 -0.2971
vn -0.7173 -0.6303 0.2971
vn -0.2444 0.9644 0.1012
vn -0.2444 0.9644 -0.1012
vn -0.3344 0.4864 0.8072
vn -0.3344 0.4864 -0.8072
vn -0.8072 0.4864 0.3344
vn -0.8072 0.4864 -0.3344
vn -0.0526 0.9838 0.1713
vn -0.0526 0.9838 -0.1713
vn -0.1764 0.9798 -0.0938
vn -0.1764 0.9798 0.0938
vn -0.2367 -0.6437 -0.7278
vn -0.2367 -0.6437 0.7278
vn -0.2971 -0.6302 0.7173
vn -0.2971 -0.6303 -0.7173
vn -0.7877 0.5263 -0.3202
vn -0.3205 0.5288 -0.7859
vn -0.3205 0.5288 0.7859
vn -0.7877 0.5263 0.3202
vn -0.7007 -0.6178 -0.3568
vn -0.7007 -0.6178 0.3568
vn -0.2367 0.6437 0.7278
vn -0.2367 0.6437 -0.7278
vn -0.7007 0.6178 0.3568
vn -0.7007 0.6178 -0.3568
vn 0.2971 -0.6303 0.7173
vn 0.1012 0.9644 0.2444
vn 0.2971 -0.6303 -0.7173
vn 0.1012 0.9644 -0.2444
vn 0.7173 -0.6303 -0.2971
vn 0.7173 -0.6303 0.2971
vn 0.2444 0.9644 0.1012
vn 0.2444 0.9644 -0.1012
vn 0.3344 0.4864 0.8072
vn 0.3344 0.4864 -0.8072
vn 0.8072 0.4864 0.3344
vn 0.8072 0.4864 -0.3344
vn 0.0526 0.9838 0.1713
vn 0.0526 0.9838 -0.1713
vn 0.1764 0.9798 -0.0938
vn 0.1764 0.9798 0.0938
vn 0.2367 -0.6437 -0.7278
vn 0.2367 -0.6437 0.7278
vn 0.7877 0.5263 -0.3202
vn 0.3205 0.5288 -0.7859
vn 0.3205 0.5288 0.7859
vn 0.7877 0.5263 0.3202
vn 0.7007 -0.6178 -0.3568
vn 0.7007 -0.6178 0.3568
vn 0.2367 0.6437 0.7278
vn 0.2367 0.6437 -0.7278
vn 0.7007 0.6178 0.3568
vn 0.7007 0.6178 -0.3568
vt 0.500000 0.250000
vt 0.857300 0.518128
vt 0.375000 1.000000
vt 0.375000 0.250000
vt 0.857300 0.731872
vt 0.500000 0.083333
vt 0.500000 0.000000
vt 0.863372 0.588870
vt 0.863372 0.661130
vt 0.375000 0.166667
vt 0.375000 0.083333
vt 0.375000 0.000000
vt 0.125000 0.750000
vt 0.125000 0.500000
vt 0.500000 1.000000
vt 0.500000 0.166667
vt 0.125000 0.666667
vt 0.125000 0.583333
s 1
f 42/1/40 4/2/4 36/2/34
f 18/3/18 49/4/47 50/3/48
f 2/5/2 11/6/11 9/7/9
f 8/8/8 2/5/2 4/2/4
f 34/5/32 4/2/4 2/5/2
f 8/8/8 11/6/11 7/9/7
f 11/6/11 5/10/5 6/11/6
f 9/7/9 6/11/6 1/12/1
f 33/13/31 3/14/3 35/14/33
f 33/3/31 9/15/9 1/3/1
f 12/16/12 3/4/3 5/10/5
f 4/2/4 12/16/12 8/8/8
f 13/3/13 15/10/15 16/11/16
f 52/4/33 19/3/19 20/4/20
f 28/11/26 17/4/17 18/12/18
f 17/4/17 62/1/56 49/4/47
f 22/10/5 19/3/19 21/11/6
f 15/10/15 26/11/24 16/11/16
f 31/6/29 27/10/25 28/11/26
f 51/3/31 25/3/23 19/3/19
f 24/4/22 22/10/5 23/10/21
f 56/4/50 14/4/14 46/4/44
f 26/11/24 19/12/19 25/12/23
f 23/10/21 21/11/6 26/11/24
f 52/4/33 24/4/22 56/4/50
f 16/11/16 25/12/23 13/12/13
f 15/10/15 24/4/22 23/10/21
f 57/3/51 13/3/13 25/3/23
f 29/7/27 28/11/26 18/12/18
f 61/15/55 30/1/28 29/15/27
f 50/3/48 29/15/27 18/3/18
f 32/16/30 17/4/17 27/10/25
f 45/3/43 14/4/14 13/3/13
f 31/6/29 30/1/28 32/16/30
f 3/14/3 6/17/6 5/18/5
f 41/15/39 2/5/2 9/15/9
f 34/5/32 43/6/41 39/9/37
f 34/5/32 40/8/38 36/2/34
f 43/6/41 40/8/38 39/9/37
f 37/10/35 43/6/41 38/11/36
f 38/11/36 41/7/39 33/12/31
f 35/4/33 44/16/42 37/10/35
f 44/16/42 36/2/34 40/8/38
f 47/10/45 45/3/43 48/11/46
f 49/4/47 60/11/54 50/12/48
f 51/3/31 54/10/35 53/11/36
f 58/11/52 47/10/45 48/11/46
f 59/10/53 63/6/57 60/11/54
f 54/10/35 56/4/50 55/10/49
f 51/12/31 58/11/52 57/12/51
f 53/11/36 55/10/49 58/11/52
f 57/12/51 48/11/46 45/12/43
f 47/10/45 56/4/50 46/4/44
f 60/11/54 61/7/55 50/12/48
f 49/4/47 64/16/58 59/10/53
f 62/1/56 63/6/57 64/16/58
f 38/17/36 35/14/33 37/18/35
f 3/4/3 42/1/40 35/4/33
f 42/1/40 10/1/10 4/2/4
f 18/3/18 17/4/17 49/4/47
f 2/5/2 7/9/7 11/6/11
f 8/8/8 7/9/7 2/5/2
f 34/5/32 36/2/34 4/2/4
f 8/8/8 12/16/12 11/6/11
f 11/6/11 12/16/12 5/10/5
f 9/7/9 11/6/11 6/11/6
f 33/13/31 1/13/1 3/14/3
f 33/3/31 41/15/39 9/15/9
f 12/16/12 10/1/10 3/4/3
f 4/2/4 10/1/10 12/16/12
f 13/3/13 14/4/14 15/10/15
f 52/4/33 51/3/31 19/3/19
f 28/11/26 27/10/25 17/4/17
f 17/4/17 30/1/28 62/1/56
f 22/10/5 20/4/20 19/3/19
f 15/10/15 23/10/21 26/11/24
f 31/6/29 32/16/30 27/10/25
f 51/3/31 57/3/51 25/3/23
f 24/4/22 20/4/20 22/10/5
f 56/4/50 24/4/22 14/4/14
f 26/11/24 21/11/6 19/12/19
f 23/10/21 22/10/5 21/11/6
f 52/4/33 20/4/20 24/4/22
f 16/11/16 26/11/24 25/12/23
f 15/10/15 14/4/14 24/4/22
f 57/3/51 45/3/43 13/3/13
f 29/7/27 31/6/29 28/11/26
f 61/15/55 62/1/56 30/1/28
f 50/3/48 61/15/55 29/15/27
f 32/16/30 30/1/28 17/4/17
f 45/3/43 46/4/44 14/4/14
f 31/6/29 29/15/27 30/1/28
f 3/14/3 1/13/1 6/17/6
f 41/15/39 34/5/32 2/5/2
f 34/5/32 41/7/39 43/6/41
f 34/5/32 39/9/37 40/8/38
f 43/6/41 44/16/42 40/8/38
f 37/10/35 44/16/42 43/6/41
f 38/11/36 43/6/41 41/7/39
f 35/4/33 42/1/40 44/16/42
f 44/16/42 42/1/40 36/2/34
f 47/10/45 46/4/44 45/3/43
f 49/4/47 59/10/53 60/11/54
f 51/3/31 52/4/33 54/10/35
f 58/11/52 55/10/49 47/10/45
f 59/10/53 64/16/58 63/6/57
f 54/10/35 52/4/33 56/4/50
f 51/12/31 53/11/36 58/11/52
f 53/11/36 54/10/35 55/10/49
f 57/12/51 58/11/52 48/11/46
f 47/10/45 55/10/49 56/4/50
f 60/11/54 63/6/57 61/7/55
f 49/4/47 62/1/56 64/16/58
f 62/1/56 61/15/55 63/6/57
f 38/17/36 33/13/31 35/14/33
f 3/4/3 10/1/10 42/1/40
