# Blender 4.2.1 LTS
# www.blender.org
mtllib sgc_door_hinge_frame.mtl
o Hinge_Frame_Low
v 0.000000 0.063500 0.072390
v -0.001693 0.063500 0.072390
v -0.000000 0.063500 -0.003810
v -0.001458 0.063500 -0.003520
v -0.002694 0.063500 -0.002694
v -0.003520 0.063500 -0.001458
v -0.003810 0.063500 0.000000
v -0.003520 0.063500 0.001458
v -0.002694 0.063500 0.002694
v -0.000000 0.063500 0.003810
v 0.001458 0.063500 0.003520
v 0.002694 0.063500 0.002694
v 0.003520 0.063500 0.001458
v 0.003810 0.063500 0.000000
v 0.003520 0.063500 -0.001458
v 0.002694 0.063500 -0.002694
v 0.001458 0.063500 -0.003520
v -0.000000 0.031750 -0.003810
v -0.001458 0.031750 -0.003520
v -0.002694 0.031750 -0.002694
v -0.003520 0.031750 -0.001458
v -0.003810 0.031750 0.000000
v -0.003520 0.031750 0.001458
v -0.002694 0.031750 0.002694
v -0.000000 0.031750 0.003810
v 0.001458 0.031750 0.003520
v 0.002694 0.031750 0.002694
v 0.003520 0.031750 0.001458
v 0.003810 0.031750 0.000000
v 0.003520 0.031750 -0.001458
v 0.002694 0.031750 -0.002694
v 0.001458 0.031750 -0.003520
v -0.001693 0.031750 0.003810
v -0.001693 0.063500 0.003810
v -0.001693 0.063500 0.003421
v -0.001693 0.031750 0.003421
v 0.000000 -0.063500 0.072390
v -0.001693 -0.063500 0.072390
v -0.000000 -0.063500 -0.003810
v -0.001458 -0.063500 -0.003520
v -0.002694 -0.063500 -0.002694
v -0.003520 -0.063500 -0.001458
v -0.003810 -0.063500 0.000000
v -0.003520 -0.063500 0.001458
v -0.002694 -0.063500 0.002694
v -0.000000 -0.063500 0.003810
v 0.001458 -0.063500 0.003520
v 0.002694 -0.063500 0.002694
v 0.003520 -0.063500 0.001458
v 0.003810 -0.063500 0.000000
v 0.003520 -0.063500 -0.001458
v 0.002694 -0.063500 -0.002694
v 0.001458 -0.063500 -0.003520
v -0.000000 -0.031750 -0.003810
v -0.001458 -0.031750 -0.003520
v -0.002694 -0.031750 -0.002694
v -0.003520 -0.031750 -0.001458
v -0.003810 -0.031750 0.000000
v -0.003520 -0.031750 0.001458
v -0.002694 -0.031750 0.002694
v -0.000000 -0.031750 0.003810
v 0.001458 -0.031750 0.003520
v 0.002694 -0.031750 0.002694
v 0.003520 -0.031750 0.001458
v 0.003810 -0.031750 0.000000
v 0.003520 -0.031750 -0.001458
v 0.002694 -0.031750 -0.002694
v 0.001458 -0.031750 -0.003520
v -0.001693 -0.031750 0.003810
v -0.001693 -0.063500 0.003810
v -0.001693 -0.063500 0.003421
v -0.001693 -0.031750 0.003421
vn -0.0000 1.0000 -0.0000
vn -1.0000 -0.0000 -0.0000
vn -0.0000 -0.0000 -1.0000
vn -0.0000 -0.0000 1.0000
vn 0.3827 -0.0000 -0.9239
vn 0.1951 -0.0000 0.9808
vn 0.3827 -0.0000 0.9239
vn -0.7071 -0.0000 -0.7071
vn -0.9239 -0.0000 -0.3827
vn 0.7071 -0.0000 0.7071
vn 0.9239 -0.0000 0.3827
vn -0.9239 -0.0000 0.3827
vn 1.0000 -0.0000 -0.0000
vn -0.7208 -0.0000 0.6931
vn 0.9239 -0.0000 -0.3827
vn 0.7071 -0.0000 -0.7071
vn -0.3827 -0.0000 -0.9239
vn -0.8910 -0.0000 0.4540
vn -0.0000 -1.0000 -0.0000
vn -0.0000 -1.0000 -0.0001
vn -0.0000 1.0000 -0.0001
vt 0.327331 0.250182
vt 0.323638 0.100623
vt 0.327331 0.100623
vt 0.235461 0.537886
vt 0.235461 0.607127
vt 0.085900 0.537886
vt 0.155395 0.966081
vt 0.159087 0.827602
vt 0.159087 0.966081
vt 0.290746 0.069118
vt 0.294439 0.346073
vt 0.290746 0.346073
vt 0.944729 0.467247
vt 0.947971 0.398006
vt 0.947971 0.467247
vt 0.922035 0.467247
vt 0.925277 0.398006
vt 0.925277 0.467247
vt 0.954455 0.467247
vt 0.957697 0.398006
vt 0.957697 0.467247
vt 0.928519 0.398006
vt 0.928519 0.467247
vt 0.960939 0.398006
vt 0.960939 0.467247
vt 0.931761 0.398006
vt 0.931761 0.467247
vt 0.964181 0.398006
vt 0.964181 0.467247
vt 0.935003 0.398006
vt 0.935003 0.467247
vt 0.967423 0.398006
vt 0.967423 0.467247
vt 0.938245 0.398006
vt 0.938245 0.467247
vt 0.941487 0.398006
vt 0.941487 0.467247
vt 0.951213 0.398006
vt 0.951213 0.467247
vt 0.970120 0.467247
vt 0.970120 0.398006
vt 0.970969 0.467247
vt 0.944729 0.398006
vt 0.036491 0.975672
vt 0.049256 0.984202
vt 0.039486 0.990730
vt 0.034198 0.987197
vt 0.032958 0.984202
vt 0.032958 0.980960
vt 0.034199 0.977964
vt 0.039486 0.974432
vt 0.042728 0.974431
vt 0.045259 0.975365
vt 0.045964 0.974894
vt 0.048016 0.977965
vt 0.036491 0.989489
vt 0.045723 0.989489
vt 0.042728 0.990730
vt 0.048015 0.987197
vt 0.049256 0.980960
vt 0.074774 0.980077
vt 0.065542 0.993894
vt 0.062009 0.985364
vt 0.068537 0.978836
vt 0.071779 0.978836
vt 0.065542 0.980077
vt 0.077067 0.982369
vt 0.078308 0.985364
vt 0.078308 0.988606
vt 0.077067 0.991601
vt 0.074775 0.993894
vt 0.071779 0.995135
vt 0.068538 0.995135
vt 0.062472 0.991842
vt 0.062943 0.991137
vt 0.062009 0.988606
vt 0.063250 0.982369
vt 0.310885 0.234790
vt 0.307192 0.384349
vt 0.307192 0.234790
vt 0.235461 0.814849
vt 0.085900 0.814849
vt 0.235461 0.745608
vt 0.953179 0.073147
vt 0.949937 0.003906
vt 0.953179 0.003906
vt 0.930485 0.073147
vt 0.927243 0.003906
vt 0.930485 0.003906
vt 0.962905 0.073147
vt 0.959663 0.003906
vt 0.962905 0.003906
vt 0.933727 0.073147
vt 0.933727 0.003906
vt 0.966147 0.073147
vt 0.966147 0.003906
vt 0.936969 0.073147
vt 0.936969 0.003906
vt 0.969389 0.073147
vt 0.969389 0.003906
vt 0.940211 0.073147
vt 0.940211 0.003906
vt 0.972631 0.073147
vt 0.972631 0.003906
vt 0.943453 0.073147
vt 0.943453 0.003906
vt 0.946695 0.073147
vt 0.946695 0.003906
vt 0.956421 0.073147
vt 0.956421 0.003906
vt 0.975328 0.003906
vt 0.975328 0.073147
vt 0.976177 0.003906
vt 0.949937 0.073147
vt 0.191819 0.842660
vt 0.194815 0.827602
vt 0.204585 0.834130
vt 0.189527 0.831135
vt 0.188286 0.837372
vt 0.188286 0.834130
vt 0.189527 0.840368
vt 0.198056 0.843901
vt 0.194815 0.843901
vt 0.200587 0.842967
vt 0.203344 0.840368
vt 0.201293 0.843438
vt 0.191820 0.828843
vt 0.201052 0.828843
vt 0.198057 0.827602
vt 0.203344 0.831135
vt 0.204585 0.837372
vt 0.097589 0.978836
vt 0.107359 0.988606
vt 0.100831 0.995135
vt 0.103826 0.980077
vt 0.106119 0.982369
vt 0.100831 0.978836
vt 0.092301 0.982369
vt 0.094594 0.980077
vt 0.091061 0.985364
vt 0.091061 0.988607
vt 0.092302 0.991602
vt 0.094594 0.993894
vt 0.097589 0.995135
vt 0.104288 0.993582
vt 0.104453 0.994414
vt 0.106119 0.991601
vt 0.107359 0.985364
vt 0.323638 0.250182
vt 0.155395 0.827602
vt 0.294439 0.069118
vt 0.922035 0.398006
vt 0.954455 0.398006
vt 0.970969 0.398006
vt 0.310885 0.384349
vt 0.927243 0.073147
vt 0.959663 0.073147
vt 0.976177 0.073147
s 1
usemtl door_parts
f 2/1/1 10/2/1 34/3/1
f 34/4/2 33/5/2 2/6/2
f 69/7/3 25/8/3 61/9/3
f 38/10/4 1/11/4 2/12/4
f 17/13/5 18/14/3 3/15/3
f 10/16/6 26/17/7 11/18/7
f 5/19/8 21/20/9 6/21/9
f 11/18/7 27/22/10 12/23/10
f 6/21/9 22/24/2 7/25/2
f 12/23/10 28/26/11 13/27/11
f 7/25/2 23/28/12 8/29/12
f 13/27/11 29/30/13 14/31/13
f 8/29/12 24/32/14 9/33/14
f 14/31/13 30/34/15 15/35/15
f 15/35/15 31/36/16 16/37/16
f 3/15/3 19/38/17 4/39/17
f 19/38/17 5/19/8 4/39/17
f 24/32/14 35/40/18 9/33/14
f 36/41/18 34/42/2 35/40/18
f 16/37/16 32/43/5 17/13/5
f 7/44/1 12/45/1 16/46/1
f 3/47/1 4/48/1 5/49/1
f 5/49/1 6/50/1 3/47/1
f 6/50/1 7/44/1 3/47/1
f 7/44/1 8/51/1 9/52/1
f 35/53/1 34/54/1 10/55/1
f 7/44/1 9/52/1 10/55/1
f 9/52/1 35/53/1 10/55/1
f 16/46/1 17/56/1 7/44/1
f 17/56/1 3/47/1 7/44/1
f 14/57/1 15/58/1 16/46/1
f 12/45/1 13/59/1 16/46/1
f 13/59/1 14/57/1 16/46/1
f 10/55/1 11/60/1 7/44/1
f 11/60/1 12/45/1 7/44/1
f 18/61/19 25/62/19 23/63/19
f 20/64/19 19/65/19 21/66/19
f 19/65/19 18/61/19 21/66/19
f 18/61/19 32/67/19 31/68/19
f 31/68/19 30/69/19 18/61/19
f 30/69/19 29/70/19 18/61/19
f 29/70/19 28/71/19 25/62/19
f 28/71/19 27/72/19 25/62/19
f 27/72/19 26/73/19 25/62/19
f 25/62/19 33/74/19 36/75/20
f 36/75/20 24/76/19 25/62/19
f 24/76/19 23/63/19 25/62/19
f 23/63/19 22/77/19 21/66/19
f 23/63/19 21/66/19 18/61/19
f 18/61/19 29/70/19 25/62/19
f 38/78/19 46/79/19 37/80/19
f 70/81/2 38/82/2 69/83/2
f 54/84/3 53/85/5 39/86/3
f 62/87/7 46/88/6 47/89/7
f 57/90/9 41/91/8 42/92/9
f 63/93/10 47/89/7 48/94/10
f 58/95/2 42/92/9 43/96/2
f 64/97/11 48/94/10 49/98/11
f 59/99/12 43/96/2 44/100/12
f 65/101/13 49/98/11 50/102/13
f 60/103/14 44/100/12 45/104/14
f 66/105/15 50/102/13 51/106/15
f 67/107/16 51/106/15 52/108/16
f 55/109/17 39/86/3 40/110/17
f 41/91/8 55/109/17 40/110/17
f 60/103/14 71/111/18 72/112/18
f 70/113/2 72/112/18 71/111/18
f 68/114/5 52/108/16 53/85/5
f 43/115/19 52/116/19 48/117/19
f 39/118/19 41/119/19 40/120/19
f 41/119/19 39/118/19 42/121/19
f 42/121/19 39/118/19 43/115/19
f 43/115/19 45/122/19 44/123/19
f 71/124/19 46/125/19 70/126/19
f 43/115/19 46/125/19 45/122/19
f 45/122/19 46/125/19 71/124/19
f 52/116/19 43/115/19 53/127/19
f 53/127/19 43/115/19 39/118/19
f 50/128/19 52/116/19 51/129/19
f 48/117/19 52/116/19 49/130/19
f 49/130/19 52/116/19 50/128/19
f 46/125/19 43/115/19 47/131/19
f 47/131/19 43/115/19 48/117/19
f 54/132/1 59/133/1 61/134/1
f 56/135/1 57/136/1 55/137/1
f 55/137/1 57/136/1 54/132/1
f 54/132/1 67/138/1 68/139/1
f 67/138/1 54/132/1 66/140/1
f 66/140/1 54/132/1 65/141/1
f 65/141/1 61/134/1 64/142/1
f 64/142/1 61/134/1 63/143/1
f 63/143/1 61/134/1 62/144/1
f 61/134/1 72/145/21 69/146/1
f 72/145/21 61/134/1 60/147/1
f 60/147/1 61/134/1 59/133/1
f 59/133/1 57/136/1 58/148/1
f 59/133/1 54/132/1 57/136/1
f 54/132/1 61/134/1 65/141/1
f 2/6/2 69/83/2 38/82/2
f 2/1/1 1/149/1 10/2/1
f 69/7/3 33/150/3 25/8/3
f 38/10/4 37/151/4 1/11/4
f 17/13/5 32/43/5 18/14/3
f 10/16/6 25/152/6 26/17/7
f 5/19/8 20/153/8 21/20/9
f 11/18/7 26/17/7 27/22/10
f 6/21/9 21/20/9 22/24/2
f 12/23/10 27/22/10 28/26/11
f 7/25/2 22/24/2 23/28/12
f 13/27/11 28/26/11 29/30/13
f 8/29/12 23/28/12 24/32/14
f 14/31/13 29/30/13 30/34/15
f 15/35/15 30/34/15 31/36/16
f 3/15/3 18/14/3 19/38/17
f 19/38/17 20/153/8 5/19/8
f 24/32/14 36/41/18 35/40/18
f 36/41/18 33/154/2 34/42/2
f 16/37/16 31/36/16 32/43/5
f 38/78/19 70/155/19 46/79/19
f 54/84/3 68/114/5 53/85/5
f 62/87/7 61/156/6 46/88/6
f 57/90/9 56/157/8 41/91/8
f 63/93/10 62/87/7 47/89/7
f 58/95/2 57/90/9 42/92/9
f 64/97/11 63/93/10 48/94/10
f 59/99/12 58/95/2 43/96/2
f 65/101/13 64/97/11 49/98/11
f 60/103/14 59/99/12 44/100/12
f 66/105/15 65/101/13 50/102/13
f 67/107/16 66/105/15 51/106/15
f 55/109/17 54/84/3 39/86/3
f 41/91/8 56/157/8 55/109/17
f 60/103/14 45/104/14 71/111/18
f 70/113/2 69/158/2 72/112/18
f 68/114/5 67/107/16 52/108/16
f 2/6/2 33/5/2 69/83/2
