# Blender 4.2.1 LTS
# www.blender.org
o Rim_CR_Stairs_LH
v -7.772400 -0.304800 0.152400
v 7.772400 -0.304800 0.152400
v -7.772400 -0.304800 10.363200
v 7.772400 -0.304800 15.240000
v -7.772400 0.076200 0.152400
v 7.772400 0.076200 0.152400
v -7.772400 0.076200 10.363200
v 7.772400 0.076200 15.240000
v -8.032563 -0.304800 -0.107763
v 8.032563 -0.304800 -0.107763
v -8.032563 -0.304800 10.363200
v 8.032563 -0.304800 15.240000
v -8.032563 0.076200 -0.107763
v 8.032563 0.076200 -0.107763
v -8.032563 0.076200 10.363200
v 8.032563 0.076200 15.240000
v -7.924800 -3.352800 4.419600
v 7.924800 -3.352800 4.419600
v -7.924800 -2.971800 4.419600
v 7.924800 -2.971800 4.419600
v -7.924800 -2.971800 4.114800
v 7.924800 -2.971800 4.114800
v -7.924800 -6.400800 8.686800
v 7.924800 -6.400800 8.686800
v -7.924800 -6.019800 8.686800
v 7.924800 -6.019800 8.686800
v -7.924800 -6.019800 8.382000
v 7.924800 -6.019800 8.382000
v -7.924800 -9.448800 12.954000
v 7.924800 -9.448800 12.954000
v -7.924800 -9.067801 12.954000
v 7.924800 -9.067801 12.954000
v -7.924800 -9.067801 12.649200
v 7.924800 -9.067801 12.649200
v -7.924800 -12.496800 17.221201
v 7.924800 -12.496800 17.221201
v -7.924800 -12.115800 17.221201
v 7.924800 -12.115800 17.221201
v -7.924800 -12.115800 16.916401
v 7.924800 -12.115800 16.916401
v -7.924800 -15.544801 21.488401
v 7.924800 -15.544801 21.488401
v -7.924800 -15.163800 21.488401
v 7.924800 -15.163800 21.488401
v -7.924800 -15.163800 21.183601
v 7.924800 -15.163800 21.183601
v -7.924800 -3.276600 4.114800
v 7.924800 -3.276600 4.114800
v -7.924800 -6.324600 8.382000
v 7.924800 -6.324600 8.382000
v -7.924800 -9.372601 12.649200
v 7.924800 -9.372601 12.649200
v -7.924800 -12.420600 16.916401
v 7.924800 -12.420600 16.916401
v -7.924800 -15.468600 21.183601
v 7.924800 -15.468600 21.183601
vn 1.0000 -0.0000 -0.0000
vn -0.0000 -0.0000 -1.0000
vn -1.0000 -0.0000 -0.0000
vn -0.0000 -1.0000 -0.0000
vn -0.0000 1.0000 -0.0000
vn -0.0000 -0.0000 1.0000
vt 0.000000 0.000000
s 1
f 5/1/1 7/1/1 3/1/1 1/1/1
f 12/1/1 10/1/1 14/1/1 16/1/1
f 10/1/2 9/1/2 13/1/2 14/1/2
f 9/1/3 11/1/3 15/1/3 13/1/3
f 2/1/4 1/1/4 9/1/4 10/1/4
f 4/1/4 2/1/4 10/1/4 12/1/4
f 1/1/4 3/1/4 11/1/4 9/1/4
f 5/1/5 6/1/5 14/1/5 13/1/5
f 6/1/5 8/1/5 16/1/5 14/1/5
f 7/1/5 5/1/5 13/1/5 15/1/5
f 8/1/3 6/1/3 2/1/3 4/1/3
f 6/1/6 5/1/6 1/1/6 2/1/6
f 11/1/6 3/1/6 7/1/6 15/1/6
f 12/1/6 16/1/6 8/1/6 4/1/6
f 20/1/6 19/1/6 17/1/6 18/1/6
f 19/1/5 20/1/5 22/1/5 21/1/5
f 26/1/6 25/1/6 23/1/6 24/1/6
f 25/1/5 26/1/5 28/1/5 27/1/5
f 32/1/6 31/1/6 29/1/6 30/1/6
f 31/1/5 32/1/5 34/1/5 33/1/5
f 38/1/6 37/1/6 35/1/6 36/1/6
f 37/1/5 38/1/5 40/1/5 39/1/5
f 44/1/6 43/1/6 41/1/6 42/1/6
f 43/1/5 44/1/5 46/1/5 45/1/5
f 45/1/2 46/1/2 56/1/2 55/1/2
f 21/1/2 22/1/2 48/1/2 47/1/2
f 27/1/2 28/1/2 50/1/2 49/1/2
f 33/1/2 34/1/2 52/1/2 51/1/2
f 39/1/2 40/1/2 54/1/2 53/1/2
