# Blender 4.2.1 LTS
# www.blender.org
o Rim_CR_Stairway_Block
v 21.945877 0.076200 0.107479
v -22.053648 0.076200 0.107479
v -12.250321 0.076200 -22.086401
v -22.086246 0.076200 -12.250693
v 21.945877 -0.304800 0.107479
v -22.086246 -0.304800 -12.250693
v -12.250321 -0.304800 -22.086401
v -22.053648 -0.304800 0.107479
v -21.804638 0.076200 -12.134071
v -12.133679 0.076200 -21.804800
v -21.838137 0.076200 -0.108064
v 21.945908 0.076200 -0.108064
v -21.804638 -0.304800 -12.134071
v -12.133679 -0.304800 -21.804800
v -21.838137 -0.304800 -0.108064
v 21.945908 -0.304800 -0.108064
vn -0.0000 -1.0000 -0.0000
vn -1.0000 -0.0000 0.0026
vn -0.0000 -0.0000 1.0000
vn -0.7071 -0.0000 -0.7071
vn -0.0000 1.0000 -0.0000
vn -0.0000 -0.0000 -1.0000
vn 1.0000 -0.0000 0.0028
vn 0.7071 -0.0000 0.7071
vt 0.000000 0.000000
s 1
f 6/1/1 13/1/1 15/1/1 8/1/1
f 6/1/1 7/1/1 14/1/1 13/1/1
f 4/1/2 6/1/2 8/1/2 2/1/2
f 2/1/3 8/1/3 5/1/3 1/1/3
f 3/1/4 7/1/4 6/1/4 4/1/4
f 1/1/5 12/1/5 11/1/5 2/1/5
f 2/1/5 11/1/5 9/1/5 4/1/5
f 8/1/1 15/1/1 16/1/1 5/1/1
f 16/1/6 15/1/6 11/1/6 12/1/6
f 15/1/7 13/1/7 9/1/7 11/1/7
f 13/1/8 14/1/8 10/1/8 9/1/8
f 4/1/5 9/1/5 10/1/5 3/1/5
