# Blender 4.2.1 LTS
# www.blender.org
o Rim_BR_Hole
v -19.574957 0.076200 2.406729
v -19.431316 0.076200 3.865129
v -18.303902 0.076200 7.581725
v -16.473076 0.076200 11.006958
v -14.009200 0.076200 14.009200
v -11.006958 0.076200 16.473076
v -7.581725 0.076200 18.303902
v -3.865129 0.076200 19.431316
v 0.000000 0.076200 19.812000
v 3.865129 0.076200 19.431316
v 7.581725 0.076200 18.303902
v 11.006958 0.076200 16.473076
v 14.009200 0.076200 14.009200
v 16.473076 0.076200 11.006958
v 18.455984 0.076200 7.297198
v 17.599983 -0.304800 7.608599
v 15.964987 -0.304800 10.667462
v 13.577105 -0.304800 13.577105
v 10.667462 -0.304800 15.964987
v 7.347877 -0.304800 17.739342
v 3.745915 -0.304800 18.831984
v 0.000000 -0.304800 19.200926
v -3.745915 -0.304800 18.831984
v -7.347877 -0.304800 17.739342
v -10.667462 -0.304800 15.964987
v -13.577105 -0.304800 13.577105
v -15.964987 -0.304800 10.667462
v -17.739342 -0.304800 7.347877
v -18.831984 -0.304800 3.745915
v -19.315300 -0.304800 1.940915
v -19.315300 0.076200 1.940915
v -18.831984 0.076200 3.745915
v -17.739342 0.076200 7.347877
v -15.964987 0.076200 10.667462
v -13.577105 0.076200 13.577105
v -10.667462 0.076200 15.964987
v -7.347877 0.076200 17.739342
v -3.745915 0.076200 18.831984
v 0.000000 0.076200 19.200926
v 3.745915 0.076200 18.831984
v 7.347877 0.076200 17.739342
v 10.667462 0.076200 15.964987
v 13.577105 0.076200 13.577105
v 15.964987 0.076200 10.667462
v 17.599983 0.076200 7.608599
v 18.455984 -0.304800 7.297198
v 16.473076 -0.304800 11.006958
v 14.009200 -0.304800 14.009200
v 11.006958 -0.304800 16.473076
v 7.581725 -0.304800 18.303902
v 3.865129 -0.304800 19.431316
v 0.000000 -0.304800 19.812000
v -3.865129 -0.304800 19.431316
v -7.581725 -0.304800 18.303902
v -11.006958 -0.304800 16.473076
v -14.009200 -0.304800 14.009200
v -16.473076 -0.304800 11.006958
v -18.303902 -0.304800 7.581725
v -19.431316 -0.304800 3.865129
v -19.574957 -0.304800 2.406729
v 18.455830 0.076200 7.294866
v 0.243795 0.076200 -0.188916
v -0.295462 -0.304800 0.246965
v 17.603027 -0.304800 7.601899
v 17.603027 0.076200 7.601899
v -0.295462 0.076200 0.246965
v 0.243795 -0.304800 -0.188916
v 18.455830 -0.304800 7.294866
v -4.044749 0.076200 -18.972214
v -0.302050 0.076200 0.237452
v 0.231082 -0.304800 -0.214347
v -3.442521 -0.304800 -19.061188
v -3.442521 0.076200 -19.061188
v 0.231082 0.076200 -0.214347
v -0.302050 -0.304800 0.237452
v -4.044749 -0.304800 -18.972214
vn 0.8819 -0.0000 0.4714
vn 0.6344 -0.0000 -0.7730
vn 0.7730 -0.0000 0.6344
vn 0.7730 -0.0000 -0.6344
vn 0.6344 -0.0000 0.7730
vn 0.8819 -0.0000 -0.4714
vn 0.4714 -0.0000 0.8819
vn 0.9569 -0.0000 -0.2903
vn 0.2903 -0.0000 0.9569
vn 0.9660 -0.0000 -0.2587
vn 0.0980 -0.0000 0.9952
vn -0.0980 -0.0000 0.9952
vn -0.2903 -0.0000 0.9569
vn -0.4714 -0.0000 0.8819
vn -0.6344 -0.0000 0.7730
vn -0.7730 -0.0000 0.6344
vn -0.8819 -0.0000 0.4714
vn -0.9569 -0.0000 0.2903
vn -0.0000 1.0000 -0.0000
vn -0.9952 -0.0000 0.0980
vn -0.8819 -0.0000 -0.4714
vn -0.7730 -0.0000 -0.6344
vn -0.6344 -0.0000 -0.7730
vn -0.4714 -0.0000 -0.8819
vn -0.2903 -0.0000 -0.9569
vn -0.0980 -0.0000 -0.9952
vn 0.0980 -0.0000 -0.9952
vn 0.2903 -0.0000 -0.9569
vn 0.4714 -0.0000 -0.8819
vn -0.0000 -1.0000 -0.0000
vn 0.3801 -0.0000 -0.9250
vn -0.3801 -0.0000 0.9250
vn -0.9815 -0.0000 0.1912
vn 0.9815 -0.0000 -0.1913
vn -0.8735 -0.0000 -0.4869
vt 0.000000 0.000000
s 0
f 14/1/1 47/1/1 46/1/1 15/1/1
f 36/1/2 25/1/2 26/1/2 35/1/2
f 13/1/3 48/1/3 47/1/3 14/1/3
f 35/1/4 26/1/4 27/1/4 34/1/4
f 12/1/5 49/1/5 48/1/5 13/1/5
f 34/1/6 27/1/6 28/1/6 33/1/6
f 11/1/7 50/1/7 49/1/7 12/1/7
f 33/1/8 28/1/8 29/1/8 32/1/8
f 10/1/9 51/1/9 50/1/9 11/1/9
f 32/1/10 29/1/10 30/1/10 31/1/10
f 9/1/11 52/1/11 51/1/11 10/1/11
f 8/1/12 53/1/12 52/1/12 9/1/12
f 7/1/13 54/1/13 53/1/13 8/1/13
f 6/1/14 55/1/14 54/1/14 7/1/14
f 5/1/15 56/1/15 55/1/15 6/1/15
f 4/1/16 57/1/16 56/1/16 5/1/16
f 3/1/17 58/1/17 57/1/17 4/1/17
f 2/1/18 59/1/18 58/1/18 3/1/18
f 31/1/19 1/1/19 2/1/19 32/1/19
f 32/1/19 2/1/19 3/1/19 33/1/19
f 33/1/19 3/1/19 4/1/19 34/1/19
f 34/1/19 4/1/19 5/1/19 35/1/19
f 35/1/19 5/1/19 6/1/19 36/1/19
f 36/1/19 6/1/19 7/1/19 37/1/19
f 37/1/19 7/1/19 8/1/19 38/1/19
f 38/1/19 8/1/19 9/1/19 39/1/19
f 39/1/19 9/1/19 10/1/19 40/1/19
f 40/1/19 10/1/19 11/1/19 41/1/19
f 41/1/19 11/1/19 12/1/19 42/1/19
f 42/1/19 12/1/19 13/1/19 43/1/19
f 43/1/19 13/1/19 14/1/19 44/1/19
f 44/1/19 14/1/19 15/1/19 45/1/19
f 1/1/20 60/1/20 59/1/20 2/1/20
f 45/1/21 16/1/21 17/1/21 44/1/21
f 44/1/22 17/1/22 18/1/22 43/1/22
f 43/1/23 18/1/23 19/1/23 42/1/23
f 42/1/24 19/1/24 20/1/24 41/1/24
f 41/1/25 20/1/25 21/1/25 40/1/25
f 40/1/26 21/1/26 22/1/26 39/1/26
f 39/1/27 22/1/27 23/1/27 38/1/27
f 38/1/28 23/1/28 24/1/28 37/1/28
f 37/1/29 24/1/29 25/1/29 36/1/29
f 16/1/30 46/1/30 47/1/30 17/1/30
f 17/1/30 47/1/30 48/1/30 18/1/30
f 18/1/30 48/1/30 49/1/30 19/1/30
f 19/1/30 49/1/30 50/1/30 20/1/30
f 20/1/30 50/1/30 51/1/30 21/1/30
f 21/1/30 51/1/30 52/1/30 22/1/30
f 22/1/30 52/1/30 53/1/30 23/1/30
f 23/1/30 53/1/30 54/1/30 24/1/30
f 24/1/30 54/1/30 55/1/30 25/1/30
f 25/1/30 55/1/30 56/1/30 26/1/30
f 26/1/30 56/1/30 57/1/30 27/1/30
f 27/1/30 57/1/30 58/1/30 28/1/30
f 28/1/30 58/1/30 59/1/30 29/1/30
f 29/1/30 59/1/30 60/1/30 30/1/30
f 61/1/31 68/1/31 67/1/31 62/1/31
f 65/1/19 61/1/19 62/1/19 66/1/19
f 66/1/32 63/1/32 64/1/32 65/1/32
f 63/1/30 67/1/30 68/1/30 64/1/30
f 69/1/33 76/1/33 75/1/33 70/1/33
f 73/1/19 69/1/19 70/1/19 74/1/19
f 74/1/34 71/1/34 72/1/34 73/1/34
f 71/1/30 75/1/30 76/1/30 72/1/30
f 1/1/35 31/1/35 30/1/35 60/1/35
