# Blender 4.2.1 LTS
# www.blender.org
mtllib sgc_pit_light_chain.mtl
o Chains
v 8.534400 9.144000 -0.609600
v 8.301116 9.144000 -0.563197
v 8.103348 9.144000 -0.431052
v 7.971203 9.144000 -0.233284
v 7.924800 9.144000 0.000000
v 7.971203 9.144000 0.233284
v 8.103348 9.144000 0.431052
v 8.301116 9.144000 0.563197
v 8.534400 9.144000 0.609600
v 8.767684 9.144000 0.563197
v 8.965452 9.144000 0.431052
v 9.097597 9.144000 0.233284
v 9.144000 9.144000 0.000000
v 9.097597 9.144000 -0.233284
v 8.965452 9.144000 -0.431052
v 8.767684 9.144000 -0.563197
v 8.534400 8.534400 0.000000
v 8.534400 8.583334 -0.609600
v 8.534400 8.534400 -0.559707
v 8.534400 8.564608 -0.605802
v 8.534400 8.548733 -0.594987
v 8.534400 8.538124 -0.578800
v 8.320210 8.534400 -0.517102
v 8.301116 8.583334 -0.563197
v 8.312902 8.538124 -0.534741
v 8.306708 8.548733 -0.549695
v 8.302569 8.564608 -0.559688
v 8.138628 8.534400 -0.395772
v 8.103348 8.583334 -0.431052
v 8.125127 8.538124 -0.409273
v 8.113681 8.548733 -0.420719
v 8.106033 8.564608 -0.428367
v 8.017299 8.534400 -0.214190
v 7.971203 8.583334 -0.233284
v 7.999659 8.538124 -0.221497
v 7.984704 8.548733 -0.227692
v 7.974711 8.564608 -0.231830
v 7.974693 8.534400 0.000000
v 7.924800 8.583334 0.000000
v 7.955600 8.538124 0.000000
v 7.939413 8.548733 0.000000
v 7.928598 8.564608 0.000000
v 8.017299 8.534400 0.214190
v 7.971203 8.583334 0.233284
v 7.999659 8.538124 0.221497
v 7.984704 8.548733 0.227692
v 7.974711 8.564608 0.231830
v 8.138628 8.534400 0.395772
v 8.103348 8.583334 0.431052
v 8.125127 8.538124 0.409273
v 8.113681 8.548733 0.420719
v 8.106033 8.564608 0.428367
v 8.320210 8.534400 0.517102
v 8.301116 8.583334 0.563197
v 8.312902 8.538124 0.534741
v 8.306708 8.548733 0.549695
v 8.302569 8.564608 0.559688
v 8.534400 8.534400 0.559707
v 8.534400 8.583334 0.609600
v 8.534400 8.538124 0.578800
v 8.534400 8.548733 0.594987
v 8.534400 8.564608 0.605802
v 8.748590 8.534400 0.517102
v 8.767684 8.583334 0.563197
v 8.755898 8.538124 0.534741
v 8.762092 8.548733 0.549695
v 8.766231 8.564608 0.559688
v 8.930172 8.534400 0.395772
v 8.965452 8.583334 0.431052
v 8.943673 8.538124 0.409273
v 8.955119 8.548733 0.420719
v 8.962767 8.564608 0.428367
v 9.051501 8.534400 0.214190
v 9.097597 8.583334 0.233284
v 9.069140 8.538124 0.221497
v 9.084096 8.548733 0.227691
v 9.094088 8.564608 0.231830
v 9.094107 8.534400 0.000000
v 9.144000 8.583334 0.000000
v 9.113199 8.538124 0.000000
v 9.129385 8.548733 0.000000
v 9.140201 8.564608 0.000000
v 9.051501 8.534400 -0.214190
v 9.097597 8.583334 -0.233284
v 9.069140 8.538124 -0.221497
v 9.084096 8.548733 -0.227691
v 9.094088 8.564608 -0.231830
v 8.930172 8.534400 -0.395772
v 8.965452 8.583334 -0.431052
v 8.943673 8.538124 -0.409273
v 8.955119 8.548733 -0.420719
v 8.962767 8.564608 -0.428367
v 8.748590 8.534400 -0.517102
v 8.767684 8.583334 -0.563197
v 8.755898 8.538124 -0.534741
v 8.762092 8.548733 -0.549695
v 8.766231 8.564608 -0.559688
v 8.537448 -0.209508 2.996664
v 8.537448 -0.819108 2.996664
v 8.537448 -0.209508 2.691864
v 8.537448 -0.819108 2.691864
v 8.537448 -0.209508 -2.996664
v 8.537448 -0.819108 -2.996664
v 8.537448 -0.209508 -2.691864
v 8.537448 -0.819108 -2.691864
v 8.537447 8.598731 -0.152400
v 8.537447 8.598731 0.152401
v 8.686799 4.888056 -0.034984
v 8.381998 4.888056 -0.034984
v 8.686799 -0.437484 -2.872748
v 8.381998 -0.437484 -2.872748
v 8.381998 4.692482 -0.139197
v 8.686799 4.692482 -0.139197
v 8.686799 -0.212044 -2.752620
v 8.381998 -0.212044 -2.752620
v 8.537447 4.687802 -0.152400
v 8.537447 4.687802 0.152401
v 8.537447 4.923542 0.152401
v 8.537447 4.923542 -0.152400
v 8.381998 -0.212044 2.752620
v 8.686799 -0.212044 2.752620
v 8.686799 4.692482 0.139197
v 8.381998 4.692482 0.139197
v 8.381998 -0.437484 2.872748
v 8.686799 -0.437484 2.872748
v 8.381998 4.888056 0.034984
v 8.686799 4.888056 0.034984
v 8.381999 8.598731 0.000000
v 8.686800 8.598731 0.000000
v 8.686800 4.923542 0.000000
v 8.381999 4.923542 0.000000
v 8.534399 -0.140375 -2.887118
v 8.534399 -0.283712 -2.618123
v 8.534399 4.620814 -0.004700
v 8.534399 4.764151 -0.273695
v 8.534399 4.673237 -0.103082
v 8.534399 4.712949 -0.177607
v 8.534399 4.908523 -0.073393
v 8.534399 4.868812 0.001132
v 8.534399 -0.191590 -2.791005
v 8.534399 -0.231175 -2.716716
v 8.534399 -0.417031 -2.911133
v 8.534399 -0.456616 -2.836844
v 8.534399 -0.140376 2.887118
v 8.534399 -0.283712 2.618123
v 8.534399 4.620814 0.004700
v 8.534399 4.764151 0.273695
v 8.534399 4.673237 0.103082
v 8.534399 4.712949 0.177607
v 8.534399 4.908523 0.073393
v 8.534399 4.868812 -0.001132
v 8.534399 -0.191590 2.791005
v 8.534399 -0.231175 2.716716
v 8.534399 -0.417030 2.911133
v 8.534399 -0.456616 2.836844
v 8.492738 4.687802 0.000000
v 8.578608 4.687802 0.000000
v 8.578608 4.923542 0.000000
v 8.492738 4.923542 0.000000
v -8.534400 9.144000 -0.609600
v -8.301116 9.144000 -0.563197
v -8.103348 9.144000 -0.431052
v -7.971203 9.144000 -0.233284
v -7.924800 9.144000 0.000000
v -7.971203 9.144000 0.233284
v -8.103348 9.144000 0.431052
v -8.301116 9.144000 0.563197
v -8.534400 9.144000 0.609600
v -8.767684 9.144000 0.563197
v -8.965452 9.144000 0.431052
v -9.097597 9.144000 0.233284
v -9.144000 9.144000 0.000000
v -9.097597 9.144000 -0.233284
v -8.965452 9.144000 -0.431052
v -8.767684 9.144000 -0.563197
v -8.534400 8.534400 0.000000
v -8.534400 8.583334 -0.609600
v -8.534400 8.534400 -0.559707
v -8.534400 8.564608 -0.605802
v -8.534400 8.548733 -0.594987
v -8.534400 8.538124 -0.578800
v -8.320210 8.534400 -0.517102
v -8.301116 8.583334 -0.563197
v -8.312902 8.538124 -0.534741
v -8.306708 8.548733 -0.549695
v -8.302569 8.564608 -0.559688
v -8.138628 8.534400 -0.395772
v -8.103348 8.583334 -0.431052
v -8.125127 8.538124 -0.409273
v -8.113681 8.548733 -0.420719
v -8.106033 8.564608 -0.428367
v -8.017299 8.534400 -0.214190
v -7.971203 8.583334 -0.233284
v -7.999659 8.538124 -0.221497
v -7.984704 8.548733 -0.227692
v -7.974711 8.564608 -0.231830
v -7.974693 8.534400 0.000000
v -7.924800 8.583334 0.000000
v -7.955600 8.538124 0.000000
v -7.939413 8.548733 0.000000
v -7.928598 8.564608 0.000000
v -8.017299 8.534400 0.214190
v -7.971203 8.583334 0.233284
v -7.999659 8.538124 0.221497
v -7.984704 8.548733 0.227692
v -7.974711 8.564608 0.231830
v -8.138628 8.534400 0.395772
v -8.103348 8.583334 0.431052
v -8.125127 8.538124 0.409273
v -8.113681 8.548733 0.420719
v -8.106033 8.564608 0.428367
v -8.320210 8.534400 0.517102
v -8.301116 8.583334 0.563197
v -8.312902 8.538124 0.534741
v -8.306708 8.548733 0.549695
v -8.302569 8.564608 0.559688
v -8.534400 8.534400 0.559707
v -8.534400 8.583334 0.609600
v -8.534400 8.538124 0.578800
v -8.534400 8.548733 0.594987
v -8.534400 8.564608 0.605802
v -8.748590 8.534400 0.517102
v -8.767684 8.583334 0.563197
v -8.755898 8.538124 0.534741
v -8.762092 8.548733 0.549695
v -8.766231 8.564608 0.559688
v -8.930172 8.534400 0.395772
v -8.965452 8.583334 0.431052
v -8.943673 8.538124 0.409273
v -8.955119 8.548733 0.420719
v -8.962767 8.564608 0.428367
v -9.051501 8.534400 0.214190
v -9.097597 8.583334 0.233284
v -9.069140 8.538124 0.221497
v -9.084096 8.548733 0.227691
v -9.094088 8.564608 0.231830
v -9.094107 8.534400 0.000000
v -9.144000 8.583334 0.000000
v -9.113199 8.538124 0.000000
v -9.129385 8.548733 0.000000
v -9.140201 8.564608 0.000000
v -9.051501 8.534400 -0.214190
v -9.097597 8.583334 -0.233284
v -9.069140 8.538124 -0.221497
v -9.084096 8.548733 -0.227691
v -9.094088 8.564608 -0.231830
v -8.930172 8.534400 -0.395772
v -8.965452 8.583334 -0.431052
v -8.943673 8.538124 -0.409273
v -8.955119 8.548733 -0.420719
v -8.962767 8.564608 -0.428367
v -8.748590 8.534400 -0.517102
v -8.767684 8.583334 -0.563197
v -8.755898 8.538124 -0.534741
v -8.762092 8.548733 -0.549695
v -8.766231 8.564608 -0.559688
v -8.537448 -0.209508 2.996664
v -8.537448 -0.819108 2.996664
v -8.537448 -0.209508 2.691864
v -8.537448 -0.819108 2.691864
v -8.537448 -0.209508 -2.996664
v -8.537448 -0.819108 -2.996664
v -8.537448 -0.209508 -2.691864
v -8.537448 -0.819108 -2.691864
v -8.537447 8.598731 -0.152400
v -8.537447 8.598731 0.152401
v -8.686799 4.888056 -0.034984
v -8.381998 4.888056 -0.034984
v -8.686799 -0.437484 -2.872748
v -8.381998 -0.437484 -2.872748
v -8.381998 4.692482 -0.139197
v -8.686799 4.692482 -0.139197
v -8.686799 -0.212044 -2.752620
v -8.381998 -0.212044 -2.752620
v -8.537447 4.687802 -0.152400
v -8.537447 4.687802 0.152401
v -8.537447 4.923542 0.152401
v -8.537447 4.923542 -0.152400
v -8.381998 -0.212044 2.752620
v -8.686799 -0.212044 2.752620
v -8.686799 4.692482 0.139197
v -8.381998 4.692482 0.139197
v -8.381998 -0.437484 2.872748
v -8.686799 -0.437484 2.872748
v -8.381998 4.888056 0.034984
v -8.686799 4.888056 0.034984
v -8.381999 8.598731 0.000000
v -8.686800 8.598731 0.000000
v -8.686800 4.923542 0.000000
v -8.381999 4.923542 0.000000
v -8.534399 -0.140375 -2.887118
v -8.534399 -0.283712 -2.618123
v -8.534399 4.620814 -0.004700
v -8.534399 4.764151 -0.273695
v -8.534399 4.673237 -0.103082
v -8.534399 4.712949 -0.177607
v -8.534399 4.908523 -0.073393
v -8.534399 4.868812 0.001132
v -8.534399 -0.191590 -2.791005
v -8.534399 -0.231175 -2.716716
v -8.534399 -0.417031 -2.911133
v -8.534399 -0.456616 -2.836844
v -8.534399 -0.140376 2.887118
v -8.534399 -0.283712 2.618123
v -8.534399 4.620814 0.004700
v -8.534399 4.764151 0.273695
v -8.534399 4.673237 0.103082
v -8.534399 4.712949 0.177607
v -8.534399 4.908523 0.073393
v -8.534399 4.868812 -0.001132
v -8.534399 -0.191590 2.791005
v -8.534399 -0.231175 2.716716
v -8.534399 -0.417030 2.911133
v -8.534399 -0.456616 2.836844
v -8.492738 4.687802 0.000000
v -8.578608 4.687802 0.000000
v -8.578608 4.923542 0.000000
v -8.492738 4.923542 0.000000
vn 1.0000 -0.0000 -0.0000
vn 0.0764 -0.9941 -0.0764
vn 0.0998 -0.9941 -0.0413
vn -0.0000 -1.0000 -0.0000
vn -0.0413 -0.9941 0.0998
vn -0.0764 -0.9941 0.0764
vn 0.0413 -0.9941 -0.0998
vn -0.0000 -0.9941 0.1080
vn 0.0413 -0.9941 0.0998
vn -0.0000 -0.9941 -0.1080
vn -0.0764 -0.9941 -0.0764
vn -0.0413 -0.9941 -0.0998
vn 0.0764 -0.9941 0.0764
vn -0.0998 -0.9941 -0.0413
vn 0.0998 -0.9941 0.0413
vn -0.1080 -0.9941 -0.0000
vn 0.1080 -0.9941 -0.0000
vn -0.0998 -0.9941 0.0413
vn 0.9194 -0.0987 0.3808
vn 0.9951 -0.0987 -0.0000
vn 0.9239 -0.0000 0.3827
vn -0.9951 -0.0987 -0.0000
vn -0.9194 -0.0987 0.3808
vn -0.9239 -0.0000 0.3827
vn -1.0000 -0.0000 -0.0000
vn 0.9194 -0.0987 -0.3808
vn 0.9239 -0.0000 -0.3827
vn -0.7037 -0.0987 0.7037
vn -0.7071 -0.0000 0.7071
vn 0.7037 -0.0987 -0.7037
vn 0.7071 -0.0000 -0.7071
vn -0.3808 -0.0987 0.9194
vn -0.3827 -0.0000 0.9239
vn 0.3808 -0.0987 -0.9194
vn 0.3827 -0.0000 -0.9239
vn -0.0000 -0.0987 0.9951
vn -0.0000 -0.0000 1.0000
vn -0.0000 -0.0987 -0.9951
vn -0.3808 -0.0987 -0.9194
vn -0.3827 -0.0000 -0.9239
vn -0.0000 -0.0000 -1.0000
vn 0.3808 -0.0987 0.9194
vn 0.3827 -0.0000 0.9239
vn -0.7037 -0.0987 -0.7037
vn -0.7071 -0.0000 -0.7071
vn 0.7037 -0.0987 0.7037
vn 0.7071 -0.0000 0.7071
vn -0.9194 -0.0987 -0.3808
vn -0.9239 -0.0000 -0.3827
vn -0.0000 -0.3800 -0.9250
vn -0.3540 -0.3800 -0.8546
vn -0.0000 -0.7015 -0.7127
vn -0.2727 -0.7015 -0.6585
vn -0.0000 -0.9178 -0.3971
vn -0.1520 -0.9178 -0.3669
vn -0.6541 -0.3800 -0.6540
vn -0.5040 -0.7015 -0.5040
vn -0.2808 -0.9178 -0.2808
vn -0.8546 -0.3800 -0.3540
vn -0.6585 -0.7015 -0.2727
vn -0.3669 -0.9178 -0.1520
vn -0.9250 -0.3801 -0.0000
vn -0.7127 -0.7015 -0.0000
vn -0.3971 -0.9178 -0.0000
vn -0.8546 -0.3800 0.3540
vn -0.6585 -0.7015 0.2727
vn -0.3669 -0.9178 0.1520
vn -0.6541 -0.3800 0.6540
vn -0.5040 -0.7015 0.5040
vn -0.2808 -0.9178 0.2808
vn -0.3540 -0.3800 0.8546
vn -0.2727 -0.7015 0.6585
vn -0.1520 -0.9178 0.3669
vn -0.0000 -0.3800 0.9250
vn -0.0000 -0.7015 0.7127
vn -0.0000 -0.9178 0.3971
vn 0.3540 -0.3800 0.8546
vn 0.2727 -0.7015 0.6585
vn 0.1520 -0.9178 0.3669
vn 0.6541 -0.3800 0.6540
vn 0.5040 -0.7015 0.5040
vn 0.2808 -0.9178 0.2808
vn 0.8546 -0.3801 0.3540
vn 0.6585 -0.7015 0.2727
vn 0.3669 -0.9178 0.1520
vn 0.9250 -0.3801 -0.0000
vn 0.7127 -0.7015 -0.0000
vn 0.3971 -0.9178 -0.0000
vn 0.8546 -0.3801 -0.3540
vn 0.6585 -0.7015 -0.2727
vn 0.3669 -0.9178 -0.1520
vn 0.6541 -0.3800 -0.6540
vn 0.5040 -0.7015 -0.5040
vn 0.2808 -0.9178 -0.2808
vn 0.3540 -0.3800 -0.8546
vn 0.2727 -0.7015 -0.6585
vn 0.1520 -0.9178 -0.3669
vn -0.0000 0.4703 -0.8825
vn -0.0000 0.4703 0.8825
vn 0.6540 -0.3800 -0.6541
vn 0.8546 -0.3800 -0.3540
vn 0.9250 -0.3800 -0.0000
vn 0.8546 -0.3800 0.3540
vn 0.6541 -0.3800 0.6541
vn -0.6540 -0.3800 0.6541
vn -0.8546 -0.3801 0.3540
vn -0.8546 -0.3801 -0.3540
vt -3.464423 0.499999
vt -3.464424 0.996141
vt 2.517892 0.996141
vt 2.517893 0.499999
vt 0.000000 0.000000
vt 1.000000 0.000000
vt 1.000000 0.500000
vt 0.000000 0.500000
vt 10.503142 1.496140
vt 10.503141 0.999999
vt 10.918951 0.999999
vt 10.918951 1.496140
vt 1.096369 1.496141
vt 1.096369 0.999999
vt 1.457091 0.999999
vt 1.457092 1.496141
vt 1.457092 0.996141
vt 1.457091 0.499999
vt 10.503141 0.499999
vt 10.503142 0.996140
vt 2.517892 0.496141
vt 2.901619 0.496141
vt 2.901620 -0.000001
vt 2.517893 -0.000001
vt -2.964423 0.499999
vt -2.964424 0.996141
vt 3.017892 0.996141
vt 3.017893 0.499999
vt 1.957092 0.996141
vt 1.957091 0.499999
vt 11.003141 0.499999
vt 11.003142 0.996140
vt 1.596369 1.818913
vt 1.596369 1.681457
vt 1.957092 1.681457
vt 1.957092 1.818913
vt 11.003142 1.818867
vt 11.003141 1.681848
vt 11.418951 1.681847
vt 11.418951 1.818867
vt 3.017892 0.820030
vt 3.401619 0.820030
vt 3.401620 0.680255
vt 3.017892 0.680255
s 1
usemtl pit_light_frame
f 88/5/2 83/5/3 17/5/4
f 53/5/5 48/5/6 17/5/4
f 93/5/7 88/5/2 17/5/4
f 58/5/8 53/5/5 17/5/4
f 63/5/9 58/5/8 17/5/4
f 19/5/10 93/5/7 17/5/4
f 28/5/11 23/5/12 17/5/4
f 68/5/13 63/5/9 17/5/4
f 33/5/14 28/5/11 17/5/4
f 73/5/15 68/5/13 17/5/4
f 38/5/16 33/5/14 17/5/4
f 78/5/17 73/5/15 17/5/4
f 43/5/18 38/5/16 17/5/4
f 83/5/3 78/5/17 17/5/4
f 48/5/6 43/5/18 17/5/4
f 74/5/19 79/5/20 13/5/1 12/5/21
f 39/5/22 44/5/23 6/5/24 5/5/25
f 79/5/20 84/5/26 14/5/27 13/5/1
f 44/5/23 49/5/28 7/5/29 6/5/24
f 84/5/26 89/5/30 15/5/31 14/5/27
f 49/5/28 54/5/32 8/5/33 7/5/29
f 89/5/30 94/5/34 16/5/35 15/5/31
f 54/5/32 59/5/36 9/5/37 8/5/33
f 18/5/38 24/5/39 2/5/40 1/5/41
f 94/5/34 18/5/38 1/5/41 16/5/35
f 59/5/36 64/5/42 10/5/43 9/5/37
f 24/5/39 29/5/44 3/5/45 2/5/40
f 64/5/42 69/5/46 11/5/47 10/5/43
f 29/5/44 34/5/48 4/5/49 3/5/45
f 69/5/46 74/5/19 12/5/21 11/5/47
f 34/5/48 39/5/22 5/5/25 4/5/49
f 24/5/39 18/5/38 20/5/50 27/5/51
f 27/5/51 20/5/50 21/5/52 26/5/53
f 26/5/53 21/5/52 22/5/54 25/5/55
f 25/5/55 22/5/54 19/5/10 23/5/12
f 29/5/44 24/5/39 27/5/51 32/5/56
f 32/5/56 27/5/51 26/5/53 31/5/57
f 31/5/57 26/5/53 25/5/55 30/5/58
f 30/5/58 25/5/55 23/5/12 28/5/11
f 34/5/48 29/5/44 32/5/56 37/5/59
f 37/5/59 32/5/56 31/5/57 36/5/60
f 36/5/60 31/5/57 30/5/58 35/5/61
f 35/5/61 30/5/58 28/5/11 33/5/14
f 39/5/22 34/5/48 37/5/59 42/5/62
f 42/5/62 37/5/59 36/5/60 41/5/63
f 41/5/63 36/5/60 35/5/61 40/5/64
f 40/5/64 35/5/61 33/5/14 38/5/16
f 44/5/23 39/5/22 42/5/62 47/5/65
f 47/5/65 42/5/62 41/5/63 46/5/66
f 46/5/66 41/5/63 40/5/64 45/5/67
f 45/5/67 40/5/64 38/5/16 43/5/18
f 49/5/28 44/5/23 47/5/65 52/5/68
f 52/5/68 47/5/65 46/5/66 51/5/69
f 51/5/69 46/5/66 45/5/67 50/5/70
f 50/5/70 45/5/67 43/5/18 48/5/6
f 54/5/32 49/5/28 52/5/68 57/5/71
f 57/5/71 52/5/68 51/5/69 56/5/72
f 56/5/72 51/5/69 50/5/70 55/5/73
f 55/5/73 50/5/70 48/5/6 53/5/5
f 59/5/36 54/5/32 57/5/71 62/5/74
f 62/5/74 57/5/71 56/5/72 61/5/75
f 61/5/75 56/5/72 55/5/73 60/5/76
f 60/5/76 55/5/73 53/5/5 58/5/8
f 64/5/42 59/5/36 62/5/74 67/5/77
f 67/5/77 62/5/74 61/5/75 66/5/78
f 66/5/78 61/5/75 60/5/76 65/5/79
f 65/5/79 60/5/76 58/5/8 63/5/9
f 69/5/46 64/5/42 67/5/77 72/5/80
f 72/5/80 67/5/77 66/5/78 71/5/81
f 71/5/81 66/5/78 65/5/79 70/5/82
f 70/5/82 65/5/79 63/5/9 68/5/13
f 74/5/19 69/5/46 72/5/80 77/5/83
f 77/5/83 72/5/80 71/5/81 76/5/84
f 76/5/84 71/5/81 70/5/82 75/5/85
f 75/5/85 70/5/82 68/5/13 73/5/15
f 79/5/20 74/5/19 77/5/83 82/5/86
f 82/5/86 77/5/83 76/5/84 81/5/87
f 81/5/87 76/5/84 75/5/85 80/5/88
f 80/5/88 75/5/85 73/5/15 78/5/17
f 84/5/26 79/5/20 82/5/86 87/5/89
f 87/5/89 82/5/86 81/5/87 86/5/90
f 86/5/90 81/5/87 80/5/88 85/5/91
f 85/5/91 80/5/88 78/5/17 83/5/3
f 89/5/30 84/5/26 87/5/89 92/5/92
f 92/5/92 87/5/89 86/5/90 91/5/93
f 91/5/93 86/5/90 85/5/91 90/5/94
f 90/5/94 85/5/91 83/5/3 88/5/2
f 94/5/34 89/5/30 92/5/92 97/5/95
f 97/5/95 92/5/92 91/5/93 96/5/96
f 96/5/96 91/5/93 90/5/94 95/5/97
f 95/5/97 90/5/94 88/5/2 93/5/7
f 18/5/38 94/5/34 97/5/95 20/5/50
f 20/5/50 97/5/95 96/5/96 21/5/52
f 21/5/52 96/5/96 95/5/97 22/5/54
f 22/5/54 95/5/97 93/5/7 19/5/10
f 23/5/12 19/5/10 17/5/4
f 247/5/11 176/5/4 242/5/14
f 212/5/9 176/5/4 207/5/13
f 252/5/12 176/5/4 247/5/11
f 217/5/8 176/5/4 212/5/9
f 222/5/5 176/5/4 217/5/8
f 178/5/10 176/5/4 252/5/12
f 187/5/2 176/5/4 182/5/7
f 227/5/6 176/5/4 222/5/5
f 192/5/3 176/5/4 187/5/2
f 232/5/18 176/5/4 227/5/6
f 197/5/17 176/5/4 192/5/3
f 237/5/16 176/5/4 232/5/18
f 202/5/15 176/5/4 197/5/17
f 242/5/14 176/5/4 237/5/16
f 207/5/13 176/5/4 202/5/15
f 233/5/23 171/5/24 172/5/25 238/5/22
f 198/5/20 164/5/1 165/5/21 203/5/19
f 238/5/22 172/5/25 173/5/49 243/5/48
f 203/5/19 165/5/21 166/5/47 208/5/46
f 243/5/48 173/5/49 174/5/45 248/5/44
f 208/5/46 166/5/47 167/5/43 213/5/42
f 248/5/44 174/5/45 175/5/40 253/5/39
f 213/5/42 167/5/43 168/5/37 218/5/36
f 177/5/38 160/5/41 161/5/35 183/5/34
f 253/5/39 175/5/40 160/5/41 177/5/38
f 218/5/36 168/5/37 169/5/33 223/5/32
f 183/5/34 161/5/35 162/5/31 188/5/30
f 223/5/32 169/5/33 170/5/29 228/5/28
f 188/5/30 162/5/31 163/5/27 193/5/26
f 228/5/28 170/5/29 171/5/24 233/5/23
f 193/5/26 163/5/27 164/5/1 198/5/20
f 183/5/34 186/5/95 179/5/50 177/5/38
f 186/5/95 185/5/96 180/5/52 179/5/50
f 185/5/96 184/5/97 181/5/54 180/5/52
f 184/5/97 182/5/7 178/5/10 181/5/54
f 188/5/30 191/5/100 186/5/95 183/5/34
f 191/5/100 190/5/93 185/5/96 186/5/95
f 190/5/93 189/5/94 184/5/97 185/5/96
f 189/5/94 187/5/2 182/5/7 184/5/97
f 193/5/26 196/5/101 191/5/100 188/5/30
f 196/5/101 195/5/90 190/5/93 191/5/100
f 195/5/90 194/5/91 189/5/94 190/5/93
f 194/5/91 192/5/3 187/5/2 189/5/94
f 198/5/20 201/5/102 196/5/101 193/5/26
f 201/5/102 200/5/87 195/5/90 196/5/101
f 200/5/87 199/5/88 194/5/91 195/5/90
f 199/5/88 197/5/17 192/5/3 194/5/91
f 203/5/19 206/5/103 201/5/102 198/5/20
f 206/5/103 205/5/84 200/5/87 201/5/102
f 205/5/84 204/5/85 199/5/88 200/5/87
f 204/5/85 202/5/15 197/5/17 199/5/88
f 208/5/46 211/5/104 206/5/103 203/5/19
f 211/5/104 210/5/81 205/5/84 206/5/103
f 210/5/81 209/5/82 204/5/85 205/5/84
f 209/5/82 207/5/13 202/5/15 204/5/85
f 213/5/42 216/5/77 211/5/104 208/5/46
f 216/5/77 215/5/78 210/5/81 211/5/104
f 215/5/78 214/5/79 209/5/82 210/5/81
f 214/5/79 212/5/9 207/5/13 209/5/82
f 218/5/36 221/5/74 216/5/77 213/5/42
f 221/5/74 220/5/75 215/5/78 216/5/77
f 220/5/75 219/5/76 214/5/79 215/5/78
f 219/5/76 217/5/8 212/5/9 214/5/79
f 223/5/32 226/5/71 221/5/74 218/5/36
f 226/5/71 225/5/72 220/5/75 221/5/74
f 225/5/72 224/5/73 219/5/76 220/5/75
f 224/5/73 222/5/5 217/5/8 219/5/76
f 228/5/28 231/5/105 226/5/71 223/5/32
f 231/5/105 230/5/69 225/5/72 226/5/71
f 230/5/69 229/5/70 224/5/73 225/5/72
f 229/5/70 227/5/6 222/5/5 224/5/73
f 233/5/23 236/5/106 231/5/105 228/5/28
f 236/5/106 235/5/66 230/5/69 231/5/105
f 235/5/66 234/5/67 229/5/70 230/5/69
f 234/5/67 232/5/18 227/5/6 229/5/70
f 238/5/22 241/5/62 236/5/106 233/5/23
f 241/5/62 240/5/63 235/5/66 236/5/106
f 240/5/63 239/5/64 234/5/67 235/5/66
f 239/5/64 237/5/16 232/5/18 234/5/67
f 243/5/48 246/5/107 241/5/62 238/5/22
f 246/5/107 245/5/60 240/5/63 241/5/62
f 245/5/60 244/5/61 239/5/64 240/5/63
f 244/5/61 242/5/14 237/5/16 239/5/64
f 248/5/44 251/5/56 246/5/107 243/5/48
f 251/5/56 250/5/57 245/5/60 246/5/107
f 250/5/57 249/5/58 244/5/61 245/5/60
f 249/5/58 247/5/11 242/5/14 244/5/61
f 253/5/39 256/5/51 251/5/56 248/5/44
f 256/5/51 255/5/53 250/5/57 251/5/56
f 255/5/53 254/5/55 249/5/58 250/5/57
f 254/5/55 252/5/12 247/5/11 249/5/58
f 177/5/38 179/5/50 256/5/51 253/5/39
f 179/5/50 180/5/52 255/5/53 256/5/51
f 180/5/52 181/5/54 254/5/55 255/5/53
f 181/5/54 178/5/10 252/5/12 254/5/55
f 182/5/7 176/5/4 178/5/10
usemtl chain
f 106/1/1 107/2/1 118/3/1 119/4/1
f 98/5/1 99/6/1 101/7/1 100/8/1
f 102/5/1 104/8/1 105/7/1 103/6/1
f 115/9/98 114/10/98 110/11/98 111/12/98
f 109/13/98 108/14/98 113/15/98 112/16/98
f 112/17/98 113/18/98 114/19/98 115/20/98
f 118/21/1 117/22/1 116/23/1 119/24/1
f 123/17/99 120/20/99 121/19/99 122/18/99
f 126/13/99 123/16/99 122/15/99 127/14/99
f 120/9/99 124/12/99 125/11/99 121/10/99
f 128/25/41 129/26/41 130/27/41 131/28/41
f 135/29/1 134/30/1 133/31/1 132/32/1
f 138/33/1 139/34/1 136/35/1 137/36/1
f 140/37/1 141/38/1 143/39/1 142/40/1
f 147/29/1 144/32/1 145/31/1 146/30/1
f 150/33/1 149/36/1 148/35/1 151/34/1
f 152/37/1 154/40/1 155/39/1 153/38/1
f 158/41/41 157/42/41 156/43/41 159/44/41
f 265/1/25 278/4/25 277/3/25 266/2/25
f 257/5/25 259/8/25 260/7/25 258/6/25
f 261/5/25 262/6/25 264/7/25 263/8/25
f 274/9/98 270/12/98 269/11/98 273/10/98
f 268/13/98 271/16/98 272/15/98 267/14/98
f 271/17/98 274/20/98 273/19/98 272/18/98
f 277/21/25 278/24/25 275/23/25 276/22/25
f 282/17/99 281/18/99 280/19/99 279/20/99
f 285/13/99 286/14/99 281/15/99 282/16/99
f 279/9/99 280/10/99 284/11/99 283/12/99
f 287/25/41 290/28/41 289/27/41 288/26/41
f 294/29/25 291/32/25 292/31/25 293/30/25
f 297/33/25 296/36/25 295/35/25 298/34/25
f 299/37/25 301/40/25 302/39/25 300/38/25
f 306/29/25 305/30/25 304/31/25 303/32/25
f 309/33/25 310/34/25 307/35/25 308/36/25
f 311/37/25 312/38/25 314/39/25 313/40/25
f 317/41/41 318/44/41 315/43/41 316/42/41
