# Blender 4.2.1 LTS
# www.blender.org
mtllib sgc_pit_light.mtl
o Pit_Light_LP
v 9.601200 -2.133600 2.286000
v 9.601200 -2.133600 -2.286000
v 9.753600 -0.000000 -0.508000
v 9.753600 -0.000000 0.508000
v 9.753600 -2.133600 2.438400
v 9.753600 -2.133600 -2.438400
v 9.601200 -1.828800 2.286000
v 9.601200 -1.828800 -2.286000
v 9.753600 -2.133600 0.812800
v 9.753600 -2.133600 -0.812800
v 9.753600 -0.304800 0.812800
v 9.753600 -0.304800 -0.812800
v 9.601200 -2.133600 0.762000
v 9.601200 -2.133600 -0.762000
v 9.601200 -1.828800 0.762000
v 9.601200 -1.828800 -0.762000
v 9.753600 -0.304800 1.828800
v 9.753600 -0.609600 2.438400
v 9.753600 -0.609600 -2.438400
v 9.753600 -0.304800 -1.828800
v -9.601200 -2.133600 2.286000
v -9.601200 -2.133600 -2.286000
v -9.753600 -0.000000 -0.508000
v -9.753600 -0.000000 0.508000
v -9.753600 -2.133600 2.438400
v -9.753600 -2.133600 -2.438400
v -9.601200 -1.828800 2.286000
v -9.601200 -1.828800 -2.286000
v -9.753600 -2.133600 0.812800
v -9.753600 -2.133600 -0.812800
v -9.753600 -0.304800 0.812800
v -9.753600 -0.304800 -0.812800
v -9.601200 -2.133600 0.762000
v -9.601200 -2.133600 -0.762000
v -9.601200 -1.828800 0.762000
v -9.601200 -1.828800 -0.762000
v -9.753600 -0.304800 1.828800
v -9.753600 -0.609600 2.438400
v -9.753600 -0.609600 -2.438400
v -9.753600 -0.304800 -1.828800
vn -0.0000 0.7071 -0.7071
vn -0.0000 -0.0000 1.0000
vn -0.0000 1.0000 -0.0000
vn 1.0000 -0.0000 -0.0000
vn -0.0000 -1.0000 -0.0000
vn -0.0000 -0.0000 -1.0000
vn -1.0000 -0.0000 -0.0000
vn -0.0000 0.7071 0.7071
vn -0.0000 0.8944 -0.4472
vn -0.0000 0.8944 0.4472
vt 0.589154 0.982883
vt 0.610551 0.014593
vt 0.610551 0.982883
vt 0.014594 0.014593
vt 0.090241 0.982883
vt 0.014593 0.982883
vt 0.274694 0.982883
vt 0.224263 0.014593
vt 0.274695 0.014593
vt 0.958364 0.095284
vt 0.867587 0.095284
vt 0.867587 0.044853
vt 0.778954 0.014593
vt 0.786519 0.975319
vt 0.778954 0.982883
vt 0.823270 0.014593
vt 0.815706 0.975319
vt 0.815706 0.022158
vt 0.948655 0.791620
vt 0.941090 0.718494
vt 0.948655 0.715972
vt 0.690321 0.967754
vt 0.705450 0.014593
vt 0.705450 0.967754
vt 0.867587 0.784055
vt 0.852457 0.708408
vt 0.867587 0.708408
vt 0.639738 0.014593
vt 0.661134 0.982883
vt 0.639737 0.982883
vt 0.867587 0.632760
vt 0.852457 0.557112
vt 0.867587 0.557112
vt 0.852457 0.632760
vt 0.948655 0.564677
vt 0.941090 0.637803
vt 0.941090 0.557112
vt 0.948655 0.640325
vt 0.958364 0.256666
vt 0.882716 0.256666
vt 0.867587 0.226407
vt 0.958364 0.175975
vt 0.354313 0.982883
vt 0.303881 0.014593
vt 0.354313 0.014593
vt 0.463119 0.982883
vt 0.496950 0.014593
vt 0.496950 0.982883
vt 0.119428 0.982883
vt 0.195076 0.014593
vt 0.195076 0.982883
vt 0.433932 0.982883
vt 0.383500 0.014593
vt 0.433932 0.014593
vt 0.867587 0.175975
vt 0.852457 0.110414
vt 0.526137 0.014593
vt 0.559967 0.982883
vt 0.526137 0.982883
vt 0.867587 0.497666
vt 0.867587 0.447235
vt 0.958364 0.447235
vt 0.985407 0.718494
vt 0.977842 0.791620
vt 0.977842 0.715972
vt 0.896774 0.632760
vt 0.911903 0.557112
vt 0.911903 0.632760
vt 0.896774 0.784055
vt 0.911903 0.708408
vt 0.911903 0.784055
vt 0.896774 0.708408
vt 0.977842 0.564677
vt 0.985407 0.637803
vt 0.977842 0.640325
vt 0.958364 0.285853
vt 0.867587 0.316112
vt 0.882716 0.285853
vt 0.958364 0.366544
vt 0.852457 0.432105
vt 0.867587 0.366544
vt 0.734637 0.014593
vt 0.749767 0.967754
vt 0.734637 0.967754
vt 0.589154 0.014593
vt 0.090241 0.014593
vt 0.224263 0.982883
vt 0.882716 0.014593
vt 0.958364 0.014593
vt 0.786519 0.022158
vt 0.823270 0.982883
vt 0.941090 0.799185
vt 0.690321 0.014593
vt 0.852457 0.784055
vt 0.661134 0.014593
vt 0.303881 0.982883
vt 0.463119 0.014593
vt 0.119428 0.014593
vt 0.383500 0.982883
vt 0.852457 0.160846
vt 0.559967 0.014593
vt 0.958364 0.527925
vt 0.882716 0.527925
vt 0.985407 0.799185
vt 0.896774 0.557112
vt 0.985407 0.557112
vt 0.852457 0.381673
vt 0.749767 0.014593
s 0
usemtl pit_light_frame
f 23/1/1 12/2/1 32/3/1
f 38/4/2 5/5/2 18/6/2
f 31/7/3 17/8/3 11/9/3
f 9/10/4 11/11/4 17/12/4
f 25/13/5 1/14/5 5/15/5
f 26/16/5 2/17/5 22/18/5
f 2/19/5 10/20/5 14/21/5
f 27/22/6 1/23/6 21/24/6
f 1/25/7 15/26/7 13/27/7
f 24/28/8 11/29/8 4/30/8
f 14/31/7 8/32/7 2/33/7
f 13/27/7 16/34/7 14/31/7
f 1/35/5 9/36/5 5/37/5
f 14/21/5 9/36/5 13/38/5
f 6/39/4 19/40/4 20/41/4
f 10/42/4 11/11/4 9/10/4
f 23/43/3 4/44/3 3/45/3
f 40/46/9 19/47/9 39/48/9
f 39/49/6 6/50/6 26/51/6
f 40/52/3 12/53/3 20/54/3
f 12/55/4 4/56/4 11/11/4
f 37/57/10 18/58/10 17/59/10
f 37/60/7 31/61/7 29/62/7
f 30/63/5 22/64/5 34/65/5
f 35/66/4 21/67/4 33/68/4
f 28/69/4 34/70/4 22/71/4
f 36/72/4 33/68/4 34/70/4
f 21/73/5 29/74/5 33/75/5
f 29/74/5 34/65/5 33/75/5
f 26/76/7 40/77/7 39/78/7
f 31/61/7 30/79/7 29/62/7
f 24/80/7 32/81/7 31/61/7
f 28/82/2 2/83/2 8/84/2
f 23/1/1 3/85/1 12/2/1
f 38/4/2 25/86/2 5/5/2
f 31/7/3 37/87/3 17/8/3
f 18/88/4 5/89/4 17/12/4
f 5/89/4 9/10/4 17/12/4
f 25/13/5 21/90/5 1/14/5
f 26/16/5 6/91/5 2/17/5
f 2/19/5 6/92/5 10/20/5
f 27/22/6 7/93/6 1/23/6
f 1/25/7 7/94/7 15/26/7
f 24/28/8 31/95/8 11/29/8
f 14/31/7 16/34/7 8/32/7
f 13/27/7 15/26/7 16/34/7
f 1/35/5 13/38/5 9/36/5
f 14/21/5 10/20/5 9/36/5
f 12/55/4 10/42/4 20/41/4
f 10/42/4 6/39/4 20/41/4
f 10/42/4 12/55/4 11/11/4
f 23/43/3 24/96/3 4/44/3
f 40/46/9 20/97/9 19/47/9
f 39/49/6 19/98/6 6/50/6
f 40/52/3 32/99/3 12/53/3
f 12/55/4 3/100/4 4/56/4
f 37/57/10 38/101/10 18/58/10
f 29/62/7 25/102/7 37/60/7
f 25/102/7 38/103/7 37/60/7
f 30/63/5 26/104/5 22/64/5
f 35/66/4 27/105/4 21/67/4
f 28/69/4 36/72/4 34/70/4
f 36/72/4 35/66/4 33/68/4
f 21/73/5 25/106/5 29/74/5
f 29/74/5 30/63/5 34/65/5
f 26/76/7 30/79/7 40/77/7
f 30/79/7 32/81/7 40/77/7
f 31/61/7 32/81/7 30/79/7
f 24/80/7 23/107/7 32/81/7
f 28/82/2 22/108/2 2/83/2
o Pit_Light_LP_Light
v 9.601200 -1.981200 2.286000
v 9.601200 -1.981200 -2.286000
v -9.601200 -1.981200 2.286000
v -9.601200 -1.981200 -2.286000
v 9.601200 -2.057400 2.286000
v 9.601200 -2.057400 -2.286000
v -9.601200 -2.057400 2.286000
v -9.601200 -2.057400 -2.286000
vn -0.0000 -1.0000 -0.0000
vt 0.000000 1.000000
vt 1.000000 0.000000
vt 1.000000 1.000000
vt 0.000000 0.000000
s 0
usemtl light
f 43/109/11 42/110/11 41/111/11
f 43/109/11 44/112/11 42/110/11
usemtl glass
f 47/109/11 46/110/11 45/111/11
f 47/109/11 48/112/11 46/110/11
