# Blender 4.2.1 LTS
# www.blender.org
o Briefing_Room_Center_Light_Physics
v -18.897600 -10.972800 -7.315198
v -18.897600 -10.972800 -3.047998
v -18.897600 -12.192000 -3.047998
v -18.897600 -17.068800 -3.047998
v 18.897600 -17.068800 9.144000
v 18.897600 -12.192000 9.144000
v 18.897600 -17.068800 3.048000
v 18.897600 -12.192000 3.048000
v -18.897600 -12.192000 -9.143998
v -18.897600 -17.068800 -9.143998
v 18.897600 -10.972800 3.048000
v 18.897600 -10.972800 7.315200
v -18.897600 -11.582400 -7.315198
v -18.897600 -11.582400 -3.047998
v 18.897600 -9.753600 3.048000
v 18.897600 -9.753600 7.315200
v -18.897600 -9.753600 -7.315198
v -18.897600 -9.753600 -3.047998
v 18.897600 -11.582400 3.048000
v 18.897600 -11.582400 7.315200
v 20.726400 -9.753600 7.315200
v 20.726400 -9.753600 -7.315200
v 24.384001 -9.753600 -3.657600
v 24.384001 -9.753600 3.657600
v 20.726400 -11.582400 7.315200
v 20.726400 -11.582400 -7.315200
v 24.384001 -11.582400 -3.657600
v 24.384001 -11.582400 3.657600
v 18.897600 -9.753600 7.315200
v 18.897600 -9.753600 -7.315200
v 18.897600 -11.582400 -7.315200
v 18.897600 -11.582400 7.315200
v 20.726400 -12.191999 9.144000
v 20.726400 -12.191999 -9.144000
v 26.212801 -12.191999 -3.657600
v 26.212801 -12.191999 3.657600
v 20.726400 -17.068800 9.144000
v 20.726400 -17.068800 -9.144000
v 26.212801 -17.068800 -3.657600
v 26.212801 -17.068800 3.657600
v 18.897600 -12.191999 9.144000
v 18.897600 -12.191999 -9.144000
v 18.897600 -17.068800 -9.144000
v 18.897600 -17.068800 9.144000
v 20.726400 -10.972799 7.315200
v 20.726400 -10.972799 -7.315200
v 24.384001 -10.972799 -3.657600
v 24.384001 -10.972799 3.657600
v 18.897600 -10.972799 7.315200
v 18.897600 -10.972799 -7.315200
v -18.897600 -17.068800 9.144000
v -18.897600 -12.192000 9.144000
v -18.897600 -17.068800 3.048000
v -18.897600 -12.192000 3.048000
v -18.897600 -10.972800 3.048000
v -18.897600 -10.972800 7.315200
v -18.897600 -9.753600 3.048000
v -18.897600 -9.753600 7.315200
v -18.897600 -11.582400 3.048000
v -18.897600 -11.582400 7.315200
v -20.726400 -9.753600 7.315200
v -20.726400 -9.753600 -7.315200
v -24.384001 -9.753600 -3.657600
v -24.384001 -9.753600 3.657600
v -20.726400 -11.582400 7.315200
v -20.726400 -11.582400 -7.315200
v -24.384001 -11.582400 -3.657600
v -24.384001 -11.582400 3.657600
v -18.897600 -9.753600 7.315200
v -18.897600 -9.753600 -7.315200
v -18.897600 -11.582400 -7.315200
v -18.897600 -11.582400 7.315200
v -20.726400 -12.191999 9.144000
v -20.726400 -12.191999 -9.144000
v -26.212801 -12.191999 -3.657600
v -26.212801 -12.191999 3.657600
v -20.726400 -17.068800 9.144000
v -20.726400 -17.068800 -9.144000
v -26.212801 -17.068800 -3.657600
v -26.212801 -17.068800 3.657600
v -18.897600 -12.191999 9.144000
v -18.897600 -12.191999 -9.144000
v -18.897600 -17.068800 -9.144000
v -18.897600 -17.068800 9.144000
v -20.726400 -10.972799 7.315200
v -20.726400 -10.972799 -7.315200
v -24.384001 -10.972799 -3.657600
v -24.384001 -10.972799 3.657600
v -18.897600 -10.972799 7.315200
v -18.897600 -10.972799 -7.315200
v 18.897600 -17.068800 -9.144002
v 18.897600 -12.192000 -9.144002
v 18.897600 -17.068800 -3.048002
v 18.897600 -12.192000 -3.048002
v 18.897600 -10.972800 -3.048002
v 18.897600 -10.972800 -7.315202
v 18.897600 -9.753600 -3.048002
v 18.897600 -9.753600 -7.315202
v 18.897600 -11.582400 -3.048002
v 18.897600 -11.582400 -7.315202
v 18.897600 -9.753600 3.048000
v 18.897600 -9.753600 1.219200
v 17.068800 -9.753600 3.048000
v 18.897600 -17.068800 3.048000
v 18.897600 -17.068800 1.219200
v 17.068800 -17.068800 3.048000
v -18.897600 -9.753600 -3.047998
v -18.897600 -9.753600 -1.219198
v -17.068800 -9.753600 -3.047998
v -18.897600 -17.068800 -3.047998
v -18.897600 -17.068800 -1.219198
v -17.068800 -17.068800 -3.047998
v 18.897600 -9.753600 -3.047998
v 18.897600 -9.753600 -1.219198
v 17.068800 -9.753600 -3.047998
v 18.897600 -17.068800 -3.047998
v 18.897600 -17.068800 -1.219198
v 17.068800 -17.068800 -3.047998
v -18.897600 -9.753600 3.048000
v -18.897600 -9.753600 1.219200
v -17.068800 -9.753600 3.048000
v -18.897600 -17.068800 3.048000
v -18.897600 -17.068800 1.219200
v -17.068800 -17.068800 3.048000
v 0.609600 -9.753600 -6.705600
v 0.609600 -9.753600 -5.486400
v 0.609600 -4.876801 -6.705600
v 0.609600 -4.876801 -5.486400
v 0.304800 -6.096001 -5.486400
v 0.304800 -6.705600 -5.486400
v -0.609600 -9.753600 -6.705600
v -0.609600 -9.753600 -5.486400
v -0.609600 -4.876801 -6.705600
v -0.609600 -4.876801 -5.486400
v -0.304800 -6.096001 -5.486400
v -0.304800 -6.705600 -5.486400
v -0.609600 -9.753600 6.705600
v -0.609600 -9.753600 5.486400
v -0.609600 -4.876801 6.705600
v -0.609600 -4.876801 5.486400
v -0.304800 -6.096001 5.486400
v -0.304800 -6.705600 5.486400
v 19.202400 -9.753600 6.705598
v 20.421600 -9.753600 6.705598
v 19.202400 -9.753600 5.486398
v 20.421600 -9.753600 5.486398
v 19.202400 9.144000 6.705598
v 20.421600 9.144000 6.705598
v 19.202400 9.144000 5.486398
v 20.421600 9.144000 5.486398
v 19.507200 -9.753600 2.462303
v 20.116800 -9.753600 2.462303
v 19.507200 -9.753600 1.600198
v 20.116800 -9.753600 1.600198
v 19.507200 -6.736234 5.479669
v 20.116800 -6.736234 5.479669
v 19.507200 -5.874129 5.479668
v 20.116800 -5.874129 5.479668
v 0.609601 -9.753600 6.705600
v 0.609601 -9.753600 5.486400
v 0.609601 -4.876801 6.705600
v 0.609601 -4.876801 5.486400
v 0.304801 -6.096001 5.486400
v 0.304801 -6.705600 5.486400
v -20.421600 -9.753600 6.705598
v -19.202400 -9.753600 6.705598
v -20.421600 -9.753600 5.486398
v -19.202400 -9.753600 5.486398
v -20.421600 9.144000 6.705598
v -19.202400 9.144000 6.705598
v -20.421600 9.144000 5.486398
v -19.202400 9.144000 5.486398
v -20.116800 -9.753600 2.462303
v -19.507200 -9.753600 2.462303
v -20.116800 -9.753600 1.600198
v -19.507200 -9.753600 1.600198
v -20.116800 -6.736234 5.479669
v -19.507200 -6.736234 5.479669
v -20.116800 -5.874129 5.479668
v -19.507200 -5.874129 5.479668
v -19.202400 -9.753600 -6.705596
v -20.421600 -9.753600 -6.705596
v -19.202400 -9.753600 -5.486396
v -20.421600 -9.753600 -5.486396
v -19.202400 9.144000 -6.705596
v -20.421600 9.144000 -6.705596
v -19.202400 9.144000 -5.486396
v -20.421600 9.144000 -5.486396
v -19.507200 -9.753600 -2.462301
v -20.116800 -9.753600 -2.462301
v -19.507200 -9.753600 -1.600197
v -20.116800 -9.753600 -1.600196
v -19.507200 -6.736234 -5.479667
v -20.116800 -6.736234 -5.479667
v -19.507200 -5.874129 -5.479666
v -20.116800 -5.874129 -5.479666
v 20.421600 -9.753600 -6.705600
v 19.202400 -9.753600 -6.705600
v 20.421600 -9.753600 -5.486400
v 19.202400 -9.753600 -5.486400
v 20.421600 9.144000 -6.705600
v 19.202400 9.144000 -6.705600
v 20.421600 9.144000 -5.486400
v 19.202400 9.144000 -5.486400
v 20.116800 -9.753600 -2.462304
v 19.507200 -9.753600 -2.462304
v 20.116800 -9.753600 -1.600200
v 19.507200 -9.753600 -1.600200
v 20.116800 -6.736234 -5.479671
v 19.507200 -6.736234 -5.479671
v 20.116800 -5.874129 -5.479670
v 19.507200 -5.874129 -5.479670
vn -0.6473 0.7295 -0.2209
vn -0.5774 0.5774 0.5774
vn -0.7071 -0.0000 0.7071
vn -0.5774 -0.5774 0.5774
vn 0.5774 -0.5774 0.5774
vn 0.6147 0.3722 0.6954
vn 0.5774 -0.5774 -0.5774
vn 0.7071 -0.0000 -0.7071
vn -0.6147 0.3722 -0.6954
vn -0.5774 -0.5774 -0.5774
vn 0.5774 0.5774 -0.5774
vn 0.6473 0.7295 0.2209
vn 0.5774 0.5774 0.5774
vn -0.5774 0.5774 -0.5774
vn 0.2971 0.6303 0.7173
vn 0.2971 0.6303 -0.7173
vn 0.7173 0.6303 -0.2971
vn 0.7173 0.6303 0.2971
vn 0.2971 -0.6303 0.7173
vn 0.2971 -0.6303 -0.7173
vn 0.7173 -0.6303 -0.2971
vn 0.7173 -0.6303 0.2971
vn 0.3304 0.4200 0.8452
vn 0.3304 0.4200 -0.8452
vn 0.8452 0.4200 -0.3304
vn 0.8452 0.4200 0.3304
vn -0.6147 0.3722 0.6954
vn 0.1869 0.9219 0.3395
vn 0.1869 0.9219 -0.3395
vn 0.3395 0.9219 -0.1869
vn 0.3395 0.9219 0.1869
vn -0.6473 0.7295 0.2209
vn -0.7071 -0.0000 -0.7071
vn -0.2971 0.6303 0.7173
vn -0.2971 0.6303 -0.7173
vn -0.7173 0.6303 -0.2971
vn -0.7173 0.6303 0.2971
vn -0.2971 -0.6303 0.7173
vn -0.2971 -0.6303 -0.7173
vn -0.7173 -0.6303 -0.2971
vn -0.7173 -0.6303 0.2971
vn -0.3304 0.4200 0.8452
vn -0.3304 0.4200 -0.8452
vn -0.8452 0.4200 -0.3304
vn -0.8452 0.4200 0.3304
vn 0.6147 0.3722 -0.6954
vn -0.1869 0.9219 0.3395
vn -0.1869 0.9219 -0.3395
vn -0.3395 0.9219 -0.1869
vn -0.3395 0.9219 0.1869
vn 0.6473 0.7295 -0.2209
vn 0.7071 -0.0000 0.7071
vn 0.3204 0.5469 -0.7734
vn -0.7734 0.5469 0.3204
vn 0.3204 -0.5469 -0.7734
vn -0.7734 -0.5469 0.3204
vn -0.3204 0.5469 0.7734
vn 0.7734 0.5469 -0.3204
vn -0.5774 -0.5774 -0.5773
vn -0.3204 -0.5469 0.7734
vn 0.7734 -0.5469 -0.3204
vn 0.3204 0.5469 0.7734
vn -0.7734 0.5469 -0.3204
vn 0.5774 -0.5774 -0.5773
vn 0.3204 -0.5469 0.7734
vn -0.7734 -0.5469 -0.3204
vn -0.3204 0.5469 -0.7734
vn 0.7734 0.5469 0.3204
vn -0.3204 -0.5469 -0.7734
vn 0.7734 -0.5469 0.3204
vn 0.7071 0.7071 -0.0000
vn 0.7071 -0.7071 -0.0000
vn -0.7071 0.7071 -0.0000
vn -0.7071 -0.7071 -0.0000
vn -0.8320 -0.3922 0.3922
vn 0.8320 -0.3922 0.3922
vn -0.4472 0.6324 -0.6324
vn 0.4472 0.6324 -0.6324
vn 0.8320 -0.3922 -0.3922
vn -0.8320 -0.3922 -0.3922
vn 0.4472 0.6324 0.6324
vn -0.4472 0.6324 0.6324
vt 0.625000 0.500000
vt 0.625000 0.750000
vt 0.375000 0.500000
vt 0.375000 0.750000
vt 0.875000 0.500000
vt 0.875000 0.750000
vt 0.865028 0.959360
vt 0.930663 0.959360
vt 0.930663 0.975769
vt 0.865028 0.975769
vt 0.930456 0.953273
vt 0.864821 0.953273
vt 0.864821 0.936865
vt 0.930456 0.936864
vt 0.889232 0.814619
vt 0.881027 0.814619
vt 0.930372 0.914465
vt 0.930372 0.930874
vt 0.864738 0.930874
vt 0.864738 0.914465
vt 0.932912 0.744371
vt 0.932912 0.801801
vt 0.924708 0.801801
vt 0.924708 0.744371
vt 0.930372 0.893677
vt 0.930372 0.910086
vt 0.864738 0.910086
vt 0.864738 0.893677
vt 0.990221 0.736096
vt 0.990221 0.965818
vt 0.973812 0.965818
vt 0.973812 0.736096
vt 0.846545 0.736386
vt 0.846545 0.966108
vt 0.830136 0.966108
vt 0.830136 0.736386
vt 0.891571 0.734826
vt 0.891571 0.808666
vt 0.883367 0.808666
vt 0.883367 0.734826
vt 0.933002 0.888459
vt 0.924798 0.888459
vt 0.903722 0.887988
vt 0.869268 0.888194
vt 0.861064 0.888194
vt 0.911927 0.887988
vt 0.816455 0.736386
vt 0.816455 0.966108
vt 0.800047 0.966108
vt 0.800047 0.736386
vt 0.869899 0.743554
vt 0.869899 0.800984
vt 0.861694 0.809189
vt 0.861694 0.735349
vt 0.913669 0.800984
vt 0.905465 0.809189
vt 0.905465 0.735350
vt 0.913669 0.743554
vt 0.960131 0.736096
vt 0.960131 0.965818
vt 0.943723 0.965818
vt 0.943723 0.736096
s 1
f 55/1/14 56/2/32 12/2/12 11/1/11
f 7/3/7 8/1/8 6/2/6 5/4/5
f 7/3/7 53/3/10 54/1/33 8/1/8
f 51/4/4 5/4/5 6/2/6 52/2/27
f 54/1/33 55/1/14 11/1/11 8/1/8
f 12/2/12 56/2/32 52/2/27 6/2/6
f 95/1/13 96/2/51 1/2/1 2/1/2
f 6/2/6 8/1/8 11/1/11 12/2/12
f 59/1/10 19/1/7 20/2/5 60/2/4
f 16/2/13 58/2/2 60/2/4 20/2/5
f 57/1/14 15/1/11 19/1/7 59/1/10
f 5/4/5 51/4/4 53/3/10 7/3/7
f 16/2/13 20/2/5 19/1/7 15/1/11
f 23/1/17 22/5/16 21/6/15 24/2/18
f 27/1/21 28/2/22 25/6/19 26/5/20
f 21/6/15 25/6/19 28/2/22 24/2/18
f 23/1/17 27/1/21 26/5/20 22/5/16
f 24/2/18 28/2/22 27/1/21 23/1/17
f 25/6/19 21/6/15 29/6/2 32/6/4
f 29/6/2 30/5/14 31/5/10 32/6/4
f 22/5/16 26/5/20 31/5/10 30/5/14
f 26/5/20 25/6/19 32/6/4 31/5/10
f 21/6/15 22/5/16 30/5/14 29/6/2
f 41/6/27 33/6/23 45/6/28 49/6/32
f 39/1/21 40/2/22 37/6/19 38/5/20
f 33/6/23 37/6/19 40/2/22 36/2/26
f 35/1/25 39/1/21 38/5/20 34/5/24
f 36/2/26 40/2/22 39/1/21 35/1/25
f 37/6/19 33/6/23 41/6/27 44/6/4
f 41/6/27 42/5/9 43/5/10 44/6/4
f 34/5/24 38/5/20 43/5/10 42/5/9
f 38/5/20 37/6/19 44/6/4 43/5/10
f 36/2/26 35/1/25 47/1/30 48/2/31
f 47/1/30 46/5/29 45/6/28 48/2/31
f 45/6/28 46/5/29 50/5/1 49/6/32
f 33/6/23 36/2/26 48/2/31 45/6/28
f 35/1/25 34/5/24 46/5/29 47/1/30
f 42/5/9 41/6/27 49/6/32 50/5/1
f 34/5/24 42/5/9 50/5/1 46/5/29
f 94/1/52 95/1/13 2/1/2 3/1/3
f 53/3/10 51/4/4 52/2/27 54/1/33
f 1/2/1 96/2/51 92/2/46 9/2/9
f 9/2/9 3/1/3 2/1/2 1/2/1
f 4/3/4 93/3/5 94/1/52 3/1/3
f 91/4/7 10/4/10 9/2/9 92/2/46
f 4/3/4 3/1/3 9/2/9 10/4/10
f 52/2/27 56/2/32 55/1/14 54/1/33
f 10/4/10 91/4/7 93/3/5 4/3/4
f 97/1/13 18/1/2 14/1/4 99/1/5
f 17/2/14 98/2/11 100/2/7 13/2/10
f 99/1/5 14/1/4 13/2/10 100/2/7
f 58/2/2 57/1/14 59/1/10 60/2/4
f 63/1/36 64/2/37 61/6/34 62/5/35
f 67/1/40 66/5/39 65/6/38 68/2/41
f 61/6/34 64/2/37 68/2/41 65/6/38
f 63/1/36 62/5/35 66/5/39 67/1/40
f 64/2/37 63/1/36 67/1/40 68/2/41
f 65/6/38 72/6/5 69/6/13 61/6/34
f 69/6/13 72/6/5 71/5/7 70/5/11
f 62/5/35 70/5/11 71/5/7 66/5/39
f 66/5/39 71/5/7 72/6/5 65/6/38
f 61/6/34 69/6/13 70/5/11 62/5/35
f 81/6/6 89/6/12 85/6/47 73/6/42
f 79/1/40 78/5/39 77/6/38 80/2/41
f 73/6/42 76/2/45 80/2/41 77/6/38
f 75/1/44 74/5/43 78/5/39 79/1/40
f 76/2/45 75/1/44 79/1/40 80/2/41
f 77/6/38 84/6/5 81/6/6 73/6/42
f 81/6/6 84/6/5 83/5/7 82/5/46
f 74/5/43 82/5/46 83/5/7 78/5/39
f 78/5/39 83/5/7 84/6/5 77/6/38
f 76/2/45 88/2/50 87/1/49 75/1/44
f 87/1/49 88/2/50 85/6/47 86/5/48
f 85/6/47 89/6/12 90/5/51 86/5/48
f 73/6/42 85/6/47 88/2/50 76/2/45
f 75/1/44 87/1/49 86/5/48 74/5/43
f 82/5/46 90/5/51 89/6/12 81/6/6
f 74/5/43 86/5/48 90/5/51 82/5/46
f 57/1/14 58/2/2 16/2/13 15/1/11
f 17/2/14 13/2/10 14/1/4 18/1/2
f 93/3/5 91/4/7 92/2/46 94/1/52
f 92/2/46 96/2/51 95/1/13 94/1/52
f 98/2/11 97/1/13 99/1/5 100/2/7
f 97/1/13 98/2/11 17/2/14 18/1/2
f 104/6/5 106/6/56 105/5/55
f 101/6/13 102/5/53 103/6/54
f 102/5/53 105/5/55 106/6/56 103/6/54
f 103/6/54 106/6/56 104/6/5 101/6/13
f 101/6/13 104/6/5 105/5/55 102/5/53
f 110/6/59 112/6/61 111/5/60
f 107/6/14 108/5/57 109/6/58
f 108/5/57 111/5/60 112/6/61 109/6/58
f 109/6/58 112/6/61 110/6/59 107/6/14
f 107/6/14 110/6/59 111/5/60 108/5/57
f 116/6/64 117/5/65 118/6/66
f 113/6/11 115/6/63 114/5/62
f 114/5/62 115/6/63 118/6/66 117/5/65
f 115/6/63 113/6/11 116/6/64 118/6/66
f 113/6/11 114/5/62 117/5/65 116/6/64
f 122/6/4 123/5/69 124/6/70
f 119/6/2 121/6/68 120/5/67
f 120/5/67 121/6/68 124/6/70 123/5/69
f 121/6/68 119/6/2 122/6/4 124/6/70
f 119/6/2 120/5/67 123/5/69 122/6/4
f 160/7/8 162/8/8 161/9/52 159/10/52
f 134/11/3 132/12/3 126/13/52 128/14/52
f 142/15/74 136/16/74 130/15/72 164/16/72
f 133/17/33 127/18/8 125/19/8 131/20/33
f 152/21/76 156/22/76 155/23/75 151/24/75
f 127/25/8 128/26/52 126/27/52 125/28/8
f 144/29/52 148/30/52 147/31/3 143/32/3
f 143/33/3 147/34/3 149/35/33 145/36/33
f 162/11/8 160/12/8 138/13/33 140/14/33
f 153/37/77 157/38/77 158/39/78 154/40/78
f 129/41/71 135/42/73 141/41/73 163/42/71
f 164/43/72 130/44/72 129/45/71 163/46/71
f 139/25/3 140/26/33 138/27/33 137/28/3
f 161/17/52 139/18/3 137/19/3 159/20/52
f 146/47/8 150/48/8 148/49/52 144/50/52
f 151/51/75 155/52/75 157/53/77 153/54/77
f 206/55/80 208/56/82 212/57/82 210/58/80
f 145/59/33 149/60/33 150/61/8 146/62/8
f 132/7/3 134/8/3 133/9/33 131/10/33
f 136/43/74 142/44/74 141/45/73 135/46/73
f 174/21/76 178/22/76 177/23/75 173/24/75
f 166/29/52 170/30/52 169/31/3 165/32/3
f 165/33/3 169/34/3 171/35/33 167/36/33
f 175/37/77 179/38/77 180/39/78 176/40/78
f 168/47/8 172/48/8 170/49/52 166/50/52
f 189/51/79 193/52/79 195/53/81 191/54/81
f 190/55/80 192/56/82 196/57/82 194/58/80
f 167/59/33 171/60/33 172/61/8 168/62/8
f 190/21/80 194/22/80 193/23/79 189/24/79
f 182/29/33 186/30/33 185/31/8 181/32/8
f 181/33/8 185/34/8 187/35/52 183/36/52
f 191/37/81 195/38/81 196/39/82 192/40/82
f 184/47/3 188/48/3 186/49/33 182/50/33
f 174/55/76 176/56/78 180/57/78 178/58/76
f 183/59/52 187/60/52 188/61/3 184/62/3
f 206/21/80 210/22/80 209/23/79 205/24/79
f 198/29/33 202/30/33 201/31/8 197/32/8
f 197/33/8 201/34/8 203/35/52 199/36/52
f 207/37/81 211/38/81 212/39/82 208/40/82
f 200/47/3 204/48/3 202/49/33 198/50/33
f 205/51/79 209/52/79 211/53/81 207/54/81
f 173/51/75 177/52/75 179/53/77 175/54/77
f 199/59/52 203/60/52 204/61/3 200/62/3
f 152/55/76 154/56/78 158/57/78 156/58/76
