# Blender 4.2.1 LTS
# www.blender.org
o Briefing_Room_Light_Physics
v 9.753600 0.000000 9.753600
v 14.630401 0.000000 14.630400
v 9.753600 0.000000 -9.753600
v 14.630401 0.000000 -14.630400
v 9.753600 -5.334000 -9.753600
v 9.753600 -5.334000 9.753600
v 14.630401 -5.334000 14.630400
v 14.630401 -5.334000 -14.630400
v -9.753602 0.000000 -9.753598
v -14.630403 0.000000 -14.630400
v -9.753598 0.000000 9.753602
v -14.630399 0.000000 14.630400
v -9.753598 -5.334000 9.753602
v -9.753602 -5.334000 -9.753598
v -14.630403 -5.334000 -14.630400
v -14.630399 -5.334000 14.630400
v 9.753600 0.000000 -9.753600
v 14.630399 0.000000 -14.630402
v -9.753600 0.000000 -9.753600
v -14.630401 0.000000 -14.630400
v -9.753600 -5.334000 -9.753600
v 9.753600 -5.334000 -9.753600
v 14.630399 -5.334000 -14.630402
v -14.630401 -5.334000 -14.630400
v -9.753598 0.000000 9.753602
v -14.630399 0.000000 14.630404
v 9.753602 0.000000 9.753598
v 14.630401 0.000000 14.630398
v 9.753602 -5.334000 9.753598
v -9.753598 -5.334000 9.753602
v -14.630399 -5.334000 14.630404
v 14.630401 -5.334000 14.630398
v 11.582400 0.000000 12.801600
v 12.801600 0.000000 12.801600
v 11.582400 0.000000 11.582400
v 12.801600 0.000000 11.582400
v 11.582400 7.924800 11.582400
v 11.582400 7.924800 12.801600
v 12.801600 7.924800 12.801600
v 12.801600 7.924800 11.582400
v 12.801600 0.000000 -11.582402
v 12.801600 0.000000 -12.801602
v 11.582399 0.000000 -11.582402
v 11.582399 0.000000 -12.801602
v 11.582399 7.924800 -11.582402
v 12.801600 7.924800 -11.582402
v 12.801600 7.924800 -12.801602
v 11.582399 7.924800 -12.801602
v -11.582403 0.000000 -12.801599
v -12.801603 0.000000 -12.801599
v -11.582403 0.000000 -11.582398
v -12.801603 0.000000 -11.582398
v -11.582403 7.924799 -11.582398
v -11.582403 7.924799 -12.801599
v -12.801603 7.924799 -12.801599
v -12.801603 7.924799 -11.582398
v -12.801598 0.000000 11.582404
v -12.801598 0.000000 12.801604
v -11.582397 0.000000 11.582404
v -11.582397 0.000000 12.801604
v -11.582397 7.924799 11.582404
v -12.801598 7.924799 11.582404
v -12.801598 7.924799 12.801604
v -11.582397 7.924799 12.801604
vn 0.7173 -0.6303 -0.2971
vn -0.3204 -0.5469 -0.7734
vn 0.7173 -0.6303 0.2971
vn -0.3204 -0.5469 0.7734
vn 0.7173 0.6303 0.2971
vn 0.7173 0.6303 -0.2971
vn -0.3204 0.5469 -0.7734
vn -0.3204 0.5469 0.7734
vn -0.7173 -0.6303 0.2971
vn 0.3204 -0.5469 0.7734
vn -0.7173 -0.6303 -0.2971
vn 0.3204 -0.5469 -0.7734
vn -0.7173 0.6303 -0.2971
vn -0.7173 0.6303 0.2971
vn 0.3204 0.5469 0.7734
vn 0.3204 0.5469 -0.7734
vn -0.2971 -0.6303 -0.7173
vn -0.7734 -0.5469 0.3204
vn 0.2971 -0.6303 -0.7173
vn 0.7734 -0.5469 0.3204
vn 0.2971 0.6303 -0.7173
vn -0.2971 0.6303 -0.7173
vn -0.7734 0.5469 0.3204
vn 0.7734 0.5469 0.3204
vn 0.2971 -0.6303 0.7173
vn 0.7734 -0.5469 -0.3204
vn -0.2971 -0.6303 0.7173
vn -0.7734 -0.5469 -0.3204
vn -0.2971 0.6303 0.7173
vn 0.2971 0.6303 0.7173
vn 0.7734 0.5469 -0.3204
vn -0.7734 0.5469 -0.3204
vn -0.5774 -0.5774 0.5774
vn 0.5774 -0.5774 0.5774
vn -0.5774 -0.5774 -0.5774
vn 0.5774 -0.5774 -0.5774
vn -0.5774 0.5774 -0.5774
vn -0.5774 0.5774 0.5774
vn 0.5774 0.5774 0.5774
vn 0.5774 0.5774 -0.5774
vt 0.000000 0.000000
vt 0.000000 1.000000
vt 1.000000 1.000000
vt 1.000000 0.000000
s 1
f 1/1/1 3/2/3 4/3/4 2/4/2
f 6/1/6 7/4/7 8/3/8 5/2/5
f 4/3/4 3/2/3 5/2/5 8/3/8
f 1/1/1 2/4/2 7/4/7 6/1/6
f 2/4/2 4/3/4 8/3/8 7/4/7
f 3/2/3 1/1/1 6/1/6 5/2/5
f 9/1/9 11/2/11 12/3/12 10/4/10
f 14/1/14 15/4/15 16/3/16 13/2/13
f 12/3/12 11/2/11 13/2/13 16/3/16
f 9/1/9 10/4/10 15/4/15 14/1/14
f 10/4/10 12/3/12 16/3/16 15/4/15
f 11/2/11 9/1/9 14/1/14 13/2/13
f 17/1/17 19/2/19 20/3/20 18/4/18
f 22/1/22 23/4/23 24/3/24 21/2/21
f 20/3/20 19/2/19 21/2/21 24/3/24
f 17/1/17 18/4/18 23/4/23 22/1/22
f 18/4/18 20/3/20 24/3/24 23/4/23
f 19/2/19 17/1/17 22/1/22 21/2/21
f 25/1/25 27/2/27 28/3/28 26/4/26
f 30/1/30 31/4/31 32/3/32 29/2/29
f 28/3/28 27/2/27 29/2/29 32/3/32
f 25/1/25 26/4/26 31/4/31 30/1/30
f 26/4/26 28/3/28 32/3/32 31/4/31
f 27/2/27 25/1/25 30/1/30 29/2/29
f 33/1/33 35/2/35 36/3/36 34/4/34
f 38/1/38 39/4/39 40/3/40 37/2/37
f 36/3/36 35/2/35 37/2/37 40/3/40
f 33/1/33 34/4/34 39/4/39 38/1/38
f 34/4/34 36/3/36 40/3/40 39/4/39
f 35/2/35 33/1/33 38/1/38 37/2/37
f 41/1/34 43/2/33 44/3/35 42/4/36
f 46/1/39 47/4/40 48/3/37 45/2/38
f 44/3/35 43/2/33 45/2/38 48/3/37
f 41/1/34 42/4/36 47/4/40 46/1/39
f 42/4/36 44/3/35 48/3/37 47/4/40
f 43/2/33 41/1/34 46/1/39 45/2/38
f 49/1/36 51/2/34 52/3/33 50/4/35
f 54/1/40 55/4/37 56/3/38 53/2/39
f 52/3/33 51/2/34 53/2/39 56/3/38
f 49/1/36 50/4/35 55/4/37 54/1/40
f 50/4/35 52/3/33 56/3/38 55/4/37
f 51/2/34 49/1/36 54/1/40 53/2/39
f 57/1/35 59/2/36 60/3/34 58/4/33
f 62/1/37 63/4/38 64/3/39 61/2/40
f 60/3/34 59/2/36 61/2/40 64/3/39
f 57/1/35 58/4/33 63/4/38 62/1/37
f 58/4/33 60/3/34 64/3/39 63/4/38
f 59/2/36 57/1/35 62/1/37 61/2/40
